<svg xmlns="http://www.w3.org/2000/svg" viewBox="0 0 100 100">
  <path d="M86.9 16.7C79.2 9.9 68.3 6 55.7 6 22.9 6 .5 31.3.5 31.3l6.3 10s3.5.3 1.6-5.6c1.6-3 4.7-7.1 10.8-11.7v66.5c-2.6.7-6.1 2.1-3.7 4.5h18.1c2.4-2.4-1.4-3.8-3.7-4.5V74.8s12.4 4.9 25.8 4.9c11.7 0 22.4-3.5 30.4-9.8 7.9-6.3 13.1-15.6 13-26.3 0-10.6-4.5-20.2-12.2-26.9zm-9.6 47.9c-5.5 5.4-13.5 8.9-22.7 8.8-10.3 0-18.9-2-24.7-4.8V18.7c6.3-4.5 16.4-7.2 24.7-7.2 10 0 17.8 3.8 23.1 9.5 5.3 5.8 8.2 13.4 8.2 22.3 0 8.7-3.1 15.9-8.6 21.3z"/>
</svg>
