<?xml version="1.0" encoding="utf-8"?>
<!-- Generator: Adobe Illustrator 21.1.0, SVG Export Plug-In . SVG Version: 6.00 Build 0)  -->
<svg version="1.1" id="レイヤー_1" xmlns="http://www.w3.org/2000/svg" xmlns:xlink="http://www.w3.org/1999/xlink" x="0px"
	 y="0px" viewBox="0 0 1280 1588" style="enable-background:new 0 0 1280 1588;" xml:space="preserve">
<style type="text/css">
	.st0{fill:#FFFF2A;}
	.st1{fill:#9DFF20;}
	.st2{fill:#395FFF;}
	.st3{opacity:0.3;}
	.st4{fill:#FFFFFF;}
	.st5{fill:#333333;}
	.st6{fill:#666666;}
</style>
<rect x="190" y="177" class="st0" width="900" height="400"/>
<rect x="190" y="576" class="st1" width="900" height="350"/>
<rect x="190" y="926" class="st2" width="900" height="350"/>
<g class="st3">
	<rect x="214.5" y="952" class="st4" width="850" height="300"/>
</g>
<g>
	<path d="M83.8,60.1V36.4l16.2,17V37.9h3.4v23.6L87.2,44.6v15.6H83.8z"/>
	<path d="M107.6,40.3c0-0.6,0.2-1.1,0.6-1.5c0.4-0.4,0.9-0.6,1.5-0.6c0.6,0,1.1,0.2,1.5,0.6c0.4,0.4,0.6,0.9,0.6,1.5
		c0,0.6-0.2,1.1-0.6,1.5c-0.4,0.4-0.9,0.6-1.5,0.6c-0.6,0-1.1-0.2-1.5-0.6C107.9,41.4,107.6,40.9,107.6,40.3z M111.4,46.1v14h-3.2
		v-14H111.4z"/>
	<path d="M118.7,35.8v24.4h-3.2V35.8H118.7z"/>
	<path d="M136.4,59.8c0,0.7,0,1.2-0.1,1.8c0,0.5-0.1,0.9-0.2,1.3c-0.2,1.1-0.7,2-1.4,2.7c-1.3,1.5-3,2.2-5.2,2.2
		c-1.9,0-3.4-0.5-4.6-1.5c-1.2-1-2-2.5-2.2-4.3h3.3c0.1,0.7,0.3,1.2,0.6,1.6c0.7,0.9,1.7,1.3,2.9,1.3c2.4,0,3.6-1.5,3.6-4.4v-2
		c-1.3,1.3-2.8,2-4.5,2c-1.9,0-3.5-0.7-4.7-2.1c-1.2-1.4-1.8-3.2-1.8-5.3c0-2,0.6-3.8,1.7-5.2c1.2-1.5,2.9-2.3,4.9-2.3
		c1.8,0,3.2,0.7,4.4,2v-1.6h3.2V59.8z M133.3,53.1c0-1.4-0.4-2.5-1.1-3.3c-0.7-0.8-1.7-1.3-2.8-1.3c-1.2,0-2.2,0.5-2.9,1.4
		c-0.6,0.8-1,1.9-1,3.2c0,1.3,0.3,2.3,1,3.1c0.7,0.9,1.7,1.3,2.9,1.3s2.2-0.5,2.9-1.4C133,55.5,133.3,54.4,133.3,53.1z"/>
	<path d="M140,40.3c0-0.6,0.2-1.1,0.6-1.5c0.4-0.4,0.9-0.6,1.5-0.6c0.6,0,1.1,0.2,1.5,0.6c0.4,0.4,0.6,0.9,0.6,1.5
		c0,0.6-0.2,1.1-0.6,1.5c-0.4,0.4-0.9,0.6-1.5,0.6c-0.6,0-1.1-0.2-1.5-0.6C140.2,41.4,140,40.9,140,40.3z M143.8,46.1v14h-3.2v-14
		H143.8z"/>
	<path d="M147.9,46.1h3.2v1.3c0.6-0.6,1.1-1.1,1.6-1.3c0.5-0.2,1-0.4,1.7-0.4c0.9,0,1.7,0.3,2.7,0.8l-1.5,3
		c-0.6-0.4-1.2-0.7-1.8-0.7c-1.8,0-2.7,1.3-2.7,4v7.3h-3.2V46.1z"/>
	<path d="M158.4,40.3c0-0.6,0.2-1.1,0.6-1.5c0.4-0.4,0.9-0.6,1.5-0.6c0.6,0,1.1,0.2,1.5,0.6c0.4,0.4,0.6,0.9,0.6,1.5
		c0,0.6-0.2,1.1-0.6,1.5c-0.4,0.4-0.9,0.6-1.5,0.6c-0.6,0-1.1-0.2-1.5-0.6C158.6,41.4,158.4,40.9,158.4,40.3z M162.2,46.1v14h-3.2
		v-14H162.2z"/>
	<path d="M182.1,41v19.1h-3.4V41h-5.1v-3.2h13.6V41H182.1z"/>
	<path d="M202.4,53.9h-10.1c0.1,1.2,0.5,2.1,1.1,2.8c0.7,0.7,1.5,1,2.6,1c0.8,0,1.5-0.2,2-0.6c0.5-0.4,1.1-1.1,1.8-2.1l2.7,1.5
		c-0.4,0.7-0.9,1.3-1.3,1.9c-0.5,0.5-1,0.9-1.5,1.3c-0.5,0.3-1.1,0.6-1.7,0.7s-1.3,0.2-2,0.2c-2.1,0-3.8-0.7-5-2
		c-1.3-1.4-1.9-3.2-1.9-5.4c0-2.2,0.6-4,1.8-5.4c1.2-1.4,2.9-2,4.9-2c2.1,0,3.7,0.7,4.9,2c1.2,1.3,1.8,3.1,1.8,5.4L202.4,53.9z
		 M199.1,51.2c-0.5-1.7-1.5-2.6-3.3-2.6c-0.4,0-0.8,0.1-1.1,0.2c-0.3,0.1-0.7,0.3-0.9,0.5c-0.3,0.2-0.5,0.5-0.7,0.8
		c-0.2,0.3-0.4,0.7-0.5,1.1H199.1z"/>
	<path d="M216.3,46.1h3.3v14h-3.3v-1.5c-1.3,1.2-2.8,1.9-4.3,1.9c-1.9,0-3.5-0.7-4.8-2.1c-1.3-1.4-1.9-3.2-1.9-5.4
		c0-2.1,0.6-3.9,1.9-5.3c1.3-1.4,2.8-2.1,4.7-2.1c1.6,0,3.1,0.7,4.4,2V46.1z M208.6,53.1c0,1.3,0.4,2.4,1.1,3.3
		c0.7,0.9,1.7,1.3,2.8,1.3c1.2,0,2.2-0.4,2.9-1.2c0.7-0.9,1.1-1.9,1.1-3.3s-0.4-2.4-1.1-3.3c-0.7-0.8-1.7-1.3-2.9-1.3
		c-1.1,0-2,0.4-2.8,1.3C209,50.8,208.6,51.8,208.6,53.1z"/>
</g>
<rect x="35" y="29" class="st5" width="41" height="34"/>
<rect x="298" y="41" class="st6" width="20" height="20"/>
<rect x="329" y="41" class="st6" width="20" height="20"/>
<rect x="360" y="41" class="st6" width="20" height="20"/>
<g>
	<path d="M251.9,53h1.6v7h-1.6v-0.7c-0.7,0.6-1.4,0.9-2.2,0.9c-1,0-1.8-0.4-2.4-1.1c-0.6-0.7-0.9-1.6-0.9-2.7c0-1.1,0.3-1.9,0.9-2.6
		c0.6-0.7,1.4-1.1,2.4-1.1c0.8,0,1.6,0.3,2.2,1V53z M248.1,56.5c0,0.7,0.2,1.2,0.5,1.6c0.4,0.4,0.8,0.6,1.4,0.6
		c0.6,0,1.1-0.2,1.5-0.6c0.4-0.4,0.6-1,0.6-1.6c0-0.7-0.2-1.2-0.6-1.6c-0.4-0.4-0.9-0.6-1.4-0.6c-0.6,0-1,0.2-1.4,0.6
		C248.3,55.3,248.1,55.9,248.1,56.5z"/>
	<path d="M257.2,47.8v6c0.7-0.7,1.4-1,2.2-1c0.9,0,1.7,0.4,2.4,1.1c0.6,0.7,0.9,1.6,0.9,2.6c0,1.1-0.3,2-1,2.7
		c-0.6,0.7-1.4,1.1-2.4,1.1c-0.8,0-1.5-0.3-2.2-0.9V60h-1.6V47.8H257.2z M261.1,56.6c0-0.7-0.2-1.2-0.5-1.6
		c-0.4-0.4-0.8-0.7-1.4-0.7c-0.6,0-1.1,0.2-1.5,0.6c-0.4,0.4-0.6,1-0.6,1.6c0,0.7,0.2,1.2,0.5,1.6c0.4,0.4,0.8,0.6,1.4,0.6
		c0.6,0,1-0.2,1.4-0.6C260.9,57.7,261.1,57.2,261.1,56.6z"/>
	<path d="M264.2,56.5c0-1,0.4-1.9,1.1-2.6c0.7-0.7,1.6-1.1,2.7-1.1c1.1,0,1.9,0.4,2.7,1.1c0.7,0.7,1.1,1.6,1.1,2.6
		c0,1.1-0.4,1.9-1.1,2.7c-0.7,0.7-1.6,1.1-2.7,1.1c-1.1,0-1.9-0.4-2.7-1.1C264.5,58.4,264.2,57.5,264.2,56.5z M265.8,56.5
		c0,0.7,0.2,1.3,0.6,1.7c0.4,0.4,0.9,0.6,1.5,0.6c0.6,0,1.1-0.2,1.5-0.6c0.4-0.4,0.6-1,0.6-1.6s-0.2-1.2-0.6-1.6
		c-0.4-0.4-0.9-0.6-1.5-0.6c-0.6,0-1.1,0.2-1.5,0.6S265.8,55.8,265.8,56.5z"/>
	<path d="M275,53v4c0,1.2,0.5,1.7,1.4,1.7c0.9,0,1.4-0.6,1.4-1.7v-4h1.6v4.1c0,0.6-0.1,1.1-0.2,1.5c-0.1,0.4-0.4,0.7-0.7,1
		c-0.5,0.5-1.2,0.7-2.1,0.7c-0.8,0-1.5-0.2-2.1-0.7c-0.3-0.3-0.6-0.6-0.7-1c-0.1-0.3-0.2-0.8-0.2-1.5V53H275z"/>
	<path d="M283.1,54.5V60h-1.6v-5.5h-0.7V53h0.7v-2.6h1.6V53h1.3v1.5H283.1z"/>
</g>
<g>
	<path d="M42.2,80.5C42.2,80.5,42.2,80.5,42.2,80.5c-0.1,0.1-0.4,0-1.1,0h-4.8c-0.8,0-1,0-1,0c-0.1,0-0.1,0-0.1-0.1v-0.3
		c0-0.1,0-0.1,0.1-0.1c0,0,0.3,0,1,0h2.1v-0.7H37c-0.8,0-1.1,0-1.1,0c-0.1,0-0.1,0-0.1-0.1v-0.3c0-0.1,0-0.1,0.1-0.1
		c0,0,0.3,0,1.1,0h1.4v-0.6h-1.1c-0.8,0-1.1,0-1.1,0c-0.1,0-0.1,0-0.1-0.1c0,0,0-0.2,0-0.8v-1.1c0-0.5,0-0.7,0-0.8
		c0-0.1,0-0.1,0.1-0.1c0,0,0.3,0,1.1,0H40c0.8,0,1.1,0,1.1,0c0.1,0,0.1,0,0.1,0.1c0,0,0,0.2,0,0.8v1.1c0,0.5,0,0.7,0,0.8
		c0,0.1,0,0.1-0.1,0.1c0,0-0.3,0-1.1,0h-1.2V79h1.6c0.8,0,1.1,0,1.1,0c0.1,0,0.1,0,0.1,0.1v0.3c0,0.1,0,0.1-0.1,0.1c0,0-0.3,0-1.1,0
		h-1.6v0.7h2.2c0.8,0,1,0,1,0c0.1,0,0.1,0,0.1,0.1V80.5z M36.7,80.9C36.7,81,36.7,81,36.7,80.9c-0.2,0.6-0.5,1-0.9,1.3
		c0,0-0.1,0-0.1,0L35.3,82c-0.1-0.1-0.1-0.1,0-0.1c0.4-0.3,0.7-0.7,1-1.1c0,0,0,0,0.1,0L36.7,80.9z M38.4,76h-1.8v0.8h1.8V76z
		 M38.4,77.2h-1.8V78h1.8V77.2z M37.8,80.9c0.1,0,0.1,0,0.1,0c0.1,0.3,0.2,0.7,0.2,1.1c0,0.1,0,0.1-0.1,0.1l-0.2,0
		c-0.1,0-0.1,0-0.1-0.1c0-0.4-0.1-0.8-0.2-1.1c0-0.1,0-0.1,0.1-0.1L37.8,80.9z M40.8,76h-1.9v0.8h1.9V76z M40.8,77.2h-1.9V78h1.9
		V77.2z M39.4,80.9c0.1,0,0.1,0,0.1,0c0.2,0.3,0.3,0.7,0.4,1.1c0,0.1,0,0.1-0.1,0.1l-0.3,0.1c-0.1,0-0.1,0-0.1,0
		c-0.1-0.4-0.2-0.8-0.4-1.1c0-0.1,0-0.1,0.1-0.1L39.4,80.9z M40.9,80.8c0.1,0,0.1,0,0.1,0c0.4,0.4,0.6,0.7,0.9,1.2
		c0,0.1,0,0.1-0.1,0.1l-0.2,0.1c-0.1,0.1-0.1,0.1-0.1,0c-0.3-0.5-0.5-0.8-0.9-1.2c0,0,0-0.1,0-0.1L40.9,80.8z"/>
	<path d="M49,80.4c0.1,0,0.1,0,0.1,0c0,0,0.1,0,0.1,0c0,0,0.1,0,0.2,0.1c0.1,0.1,0.1,0.2,0.1,0.2c0,0,0,0.1-0.1,0.1
		c-0.1,0-0.1,0.1-0.2,0.2c-0.3,0.3-0.6,0.5-1,0.7c0.8,0.2,1.7,0.3,2.8,0.3c-0.1,0.1-0.2,0.2-0.2,0.3c-0.1,0.1-0.1,0.1-0.2,0.1
		c-1.1-0.1-2.1-0.2-2.9-0.5c-0.6,0.3-1.3,0.4-2.1,0.6c-0.2,0-0.2,0-0.2-0.1c0-0.1-0.1-0.2-0.2-0.3c0.7-0.1,1.4-0.2,2-0.4
		c-0.4-0.2-0.8-0.4-1.1-0.8c-0.4,0.5-1,0.9-1.8,1.3c-0.1,0-0.1,0-0.1,0c0,0-0.1,0-0.1-0.1c-0.1-0.1-0.1-0.1-0.2-0.2
		c1.2-0.5,2-1.2,2.4-2h-1.1c-0.8,0-1,0-1.1,0c-0.1,0-0.1,0-0.1-0.1v-0.3c0-0.1,0-0.1,0.1-0.1c0,0,0.3,0,1.1,0h1.3
		c0.1-0.2,0.1-0.4,0.2-0.6c0.2,0,0.3,0.1,0.4,0.1c0.1,0,0.1,0,0.1,0.1s0,0.1-0.1,0.1c0,0-0.1,0.2-0.1,0.3h2.9c0.8,0,1,0,1.1,0
		c0.1,0,0.1,0,0.1,0.1v0.3c0,0.1,0,0.1-0.1,0.1c0,0-0.3,0-1.1,0h-3.1c-0.1,0.1-0.2,0.3-0.2,0.4H49z M47.8,77.9
		C47.8,77.9,47.8,77.9,47.8,77.9c-0.1,0.1-0.4,0-1.1,0h-1c-0.1,0.3-0.2,0.5-0.3,0.7c0.5,0,1-0.1,1.6-0.2c-0.1-0.1-0.1-0.2-0.2-0.3
		c0,0,0-0.1,0-0.1l0.1-0.1c0.1,0,0.1,0,0.1,0c0.3,0.3,0.5,0.5,0.7,0.9c0,0.1,0,0.1,0,0.1l-0.2,0.1c-0.1,0-0.1,0-0.1,0
		c-0.1-0.1-0.1-0.2-0.2-0.3c-0.7,0.1-1.6,0.2-2.2,0.3c-0.3,0-0.4,0.1-0.5,0.1c0,0-0.1,0-0.1,0c0,0-0.1,0-0.1-0.1
		c0-0.1-0.1-0.3-0.1-0.4c0.2,0,0.3,0,0.6,0c0,0,0.1,0,0.1,0c0.1-0.2,0.2-0.5,0.3-0.7h-0.1c-0.7,0-1,0-1,0c-0.1,0-0.1,0-0.1-0.1v-0.2
		c0-0.1,0-0.1,0.1-0.1c0,0,0.2,0,0.8,0v-1.3c0-0.5,0-0.7,0-0.7c0-0.1,0-0.1,0.1-0.1c0,0,0.2,0,0.8,0h0.9c0.6,0,0.8,0,0.8,0
		c0.1,0,0.1,0,0.1,0.1v0.2c0,0.1,0,0.1-0.1,0.1c0,0-0.2,0-0.8,0h-1.4v0.3h1.3c0.6,0,0.7,0,0.8,0c0.1,0,0.1,0,0.1,0.1v0.2
		c0,0.1,0,0.1-0.1,0.1c0,0-0.2,0-0.8,0h-1.3v0.4h1.3c0.6,0,0.7,0,0.8,0c0.1,0,0.1,0,0.1,0.1v0.2c0,0.1,0,0.1-0.1,0.1
		c0,0-0.2,0-0.8,0h-1.3v0.4h1.5c0.7,0,1,0,1,0c0.1,0,0.1,0,0.1,0.1V77.9z M46.5,80.7c0.4,0.3,0.8,0.6,1.3,0.7
		c0.4-0.2,0.8-0.4,1.1-0.7H46.5z M50.4,75.7c-0.1,0-0.2,0.1-0.2,0.1c-0.6,0.4-1.3,0.7-2,0.9c-0.2,0-0.2,0-0.2-0.1
		c0-0.1-0.1-0.1-0.1-0.2c0.9-0.2,1.6-0.5,2.1-0.9c0.1-0.1,0.2-0.1,0.2-0.2c0.1,0.1,0.2,0.1,0.3,0.2C50.5,75.6,50.5,75.6,50.4,75.7
		C50.5,75.7,50.5,75.7,50.4,75.7z M50.9,78c-0.1,0-0.2,0.1-0.3,0.2c-0.7,0.4-1.3,0.6-2.2,0.9c-0.2,0-0.2,0-0.2-0.1
		c0-0.1-0.1-0.2-0.2-0.2c1.1-0.2,1.7-0.5,2.4-0.9c0.1-0.1,0.3-0.2,0.3-0.3c0.1,0.1,0.2,0.2,0.3,0.3C51,77.8,51,77.9,50.9,78
		C51,77.9,51,78,50.9,78z M50.7,76.8c-0.1,0-0.2,0.1-0.2,0.1c-0.7,0.4-1.3,0.6-2.1,0.8c-0.2,0-0.2,0-0.2-0.1c0-0.1-0.1-0.2-0.2-0.2
		c0.9-0.2,1.6-0.5,2.2-0.8c0.1-0.1,0.2-0.1,0.3-0.2c0.1,0.1,0.2,0.2,0.3,0.2C50.8,76.7,50.8,76.7,50.7,76.8
		C50.8,76.8,50.7,76.8,50.7,76.8z"/>
	<path d="M55.3,79.1c0,2.1,0,2.4,0,2.5c0,0.1,0,0.1-0.1,0.1h-0.3c-0.1,0-0.1,0-0.1-0.1v-0.3h-1.2V82c0,0.1,0,0.1-0.1,0.1h-0.3
		c-0.1,0-0.1,0-0.1-0.1c0,0,0-0.4,0-2.7v-1.6c0-1.6,0-2,0-2c0-0.1,0-0.1,0.1-0.1c0,0,0.2,0,0.7,0h0.6c0.5,0,0.6,0,0.7,0
		c0.1,0,0.1,0,0.1,0.1c0,0,0,0.4,0,1.7V79.1z M54.8,76h-1.2v1.3h1.2V76z M54.8,77.8h-1.2v1.3h1.2V77.8z M54.8,79.5h-1.2v1.4h1.2
		V79.5z M57.7,78.8c0.1,0.5,0.3,0.9,0.5,1.3c0.3-0.2,0.6-0.5,1-0.8c0.1-0.1,0.2-0.2,0.2-0.3c0.2,0.1,0.2,0.2,0.4,0.3
		c0,0,0.1,0.1,0.1,0.1c0,0,0,0.1-0.1,0.1c-0.1,0-0.2,0.1-0.4,0.3c-0.3,0.2-0.6,0.5-0.9,0.7c0.4,0.6,0.9,1,1.7,1.4
		c-0.1,0.1-0.2,0.2-0.2,0.3c0,0.1-0.1,0.1-0.1,0.1c0,0-0.1,0-0.1-0.1c-1.3-0.8-2-2-2.3-3.4h-0.7v2.7c0.4-0.1,0.9-0.3,1.3-0.5
		c0,0.1,0,0.2,0,0.3c0,0.2,0,0.2-0.2,0.2c-0.6,0.2-1.1,0.4-1.9,0.6c-0.2,0-0.3,0.1-0.3,0.1c0,0,0,0-0.1,0c0,0-0.1,0-0.1-0.1
		c0-0.1-0.1-0.3-0.2-0.4c0.2,0,0.4-0.1,0.7-0.1c0.1,0,0.1,0,0.2-0.1v-4.5c0-0.9,0-1.4,0-1.4c0-0.1,0-0.1,0.1-0.1c0,0,0.3,0,1,0h1.2
		c0.6,0,0.9,0,0.9,0c0.1,0,0.1,0,0.1,0.1c0,0,0,0.3,0,0.9v1.4c0,0.6,0,0.8,0,0.9c0,0.1,0,0.1-0.1,0.1c0,0-0.3,0-0.9,0H57.7z
		 M58.8,76.1h-2.3v1h2.3V76.1z M58.8,77.4h-2.3v1h2.3V77.4z"/>
	<path d="M64.2,77c0,0.1-0.1,0.1-0.1,0.1c0,0-0.1,0-0.1-0.1c-0.3-0.3-0.6-0.7-0.9-1.1c-0.3,0.6-0.8,1.1-1.3,1.6c0,0-0.1,0.1-0.1,0.1
		c0,0-0.1,0-0.1-0.1c0-0.1-0.1-0.2-0.2-0.3c0.6-0.4,1.1-1,1.4-1.5c0.1-0.2,0.2-0.3,0.2-0.4c0.2,0,0.3,0.1,0.5,0.1c0,0,0.1,0,0.1,0.1
		c0,0,0,0.1-0.1,0.1c0,0,0,0-0.1,0.1c0.3,0.5,0.6,0.8,1.1,1.2C64.4,76.8,64.3,76.9,64.2,77z M63.3,81.3c0.4-0.1,0.8-0.3,1.2-0.4
		c0,0.1,0,0.2,0,0.3c0,0.2,0,0.2-0.2,0.2c-0.6,0.2-1.4,0.4-2,0.6c-0.2,0-0.3,0.1-0.3,0.1c0,0-0.1,0-0.1,0s-0.1,0-0.1-0.1
		c0-0.1-0.1-0.3-0.2-0.4c0.2,0,0.4-0.1,0.7-0.1c0.2,0,0.3-0.1,0.5-0.1V79h-0.3c-0.6,0-0.8,0-0.8,0c-0.1,0-0.1,0-0.1-0.1v-0.3
		c0-0.1,0-0.1,0.1-0.1c0,0,0.2,0,0.8,0h0.3v-0.8h0c-0.5,0-0.6,0-0.7,0c-0.1,0-0.1,0-0.1-0.1v-0.3c0-0.1,0-0.1,0.1-0.1
		c0,0,0.2,0,0.7,0h0.5c0.5,0,0.6,0,0.7,0c0.1,0,0.1,0,0.1,0.1v0.3c0,0.1,0,0.1-0.1,0.1c0,0-0.2,0-0.7,0h0v0.8h0.2c0.6,0,0.8,0,0.8,0
		c0.1,0,0.1,0,0.1,0.1V79c0,0.1,0,0.1-0.1,0.1c0,0-0.2,0-0.8,0h-0.2V81.3z M62,79.6c0.1,0,0.1,0,0.1,0c0.2,0.4,0.2,0.8,0.3,1.2
		c0,0.1,0,0.1-0.1,0.1L62.2,81c-0.1,0-0.1,0-0.1,0c-0.1-0.5-0.1-0.8-0.3-1.2c0-0.1,0-0.1,0.1-0.1L62,79.6z M64.4,79.7
		c0,0-0.1,0.1-0.1,0.2c-0.1,0.2-0.2,0.5-0.3,0.8c-0.1,0.1-0.1,0.1-0.2,0.1c-0.1,0-0.1-0.1-0.2-0.1c0.2-0.4,0.2-0.7,0.3-1
		c0-0.1,0-0.2,0-0.3c0.1,0,0.3,0.1,0.4,0.1C64.4,79.6,64.4,79.6,64.4,79.7C64.4,79.7,64.4,79.7,64.4,79.7z M67.1,81.6
		c0,0.1,0,0.1,0,0.2c0.1,0,0.3,0.1,0.4,0.1c0.2,0,0.4,0,0.5-0.1c0.1-0.1,0.2-0.2,0.2-0.7c0.1,0.1,0.2,0.1,0.3,0.2
		c0.1,0,0.1,0.1,0.1,0.2c-0.1,0.5-0.2,0.6-0.3,0.7c-0.2,0.1-0.5,0.1-0.8,0.1c-0.5,0-0.7,0-0.8-0.1c-0.1-0.1-0.2-0.2-0.2-0.4v-1.4H66
		c-0.1,1-0.6,1.6-1.9,2c-0.1,0-0.1,0-0.1,0c0,0-0.1,0-0.1-0.1c-0.1-0.1-0.2-0.2-0.3-0.3c1.4-0.3,1.9-0.8,1.9-1.7c-0.5,0-0.7,0-0.8,0
		c-0.1,0-0.1,0-0.1-0.1c0,0,0-0.2,0-0.7v-0.8c0-0.5,0-0.6,0-0.7c0-0.1,0-0.1,0.1-0.1c0,0,0.3,0,1,0h1.3c0.7,0,0.9,0,1,0
		c0.1,0,0.1,0,0.1,0.1c0,0,0,0.2,0,0.7v0.8c0,0.5,0,0.6,0,0.7c0,0.1,0,0.1-0.1,0.1c0,0-0.3,0-0.9,0V81.6z M68.7,77.6
		C68.7,77.7,68.7,77.7,68.7,77.6c-0.1,0.1-0.4,0-1.1,0h-2.1c-0.8,0-1,0-1.1,0c-0.1,0-0.1,0-0.1-0.1v-0.3c0-0.1,0-0.1,0.1-0.1
		c0,0,0.3,0,1.1,0h0.1c-0.1-0.3-0.2-0.4-0.3-0.6c0-0.1,0-0.1,0.1-0.1l0.2-0.1c0.1,0,0.1,0,0.1,0c0.1,0.2,0.2,0.5,0.3,0.8h0.9
		c0.1-0.2,0.2-0.3,0.2-0.5c0-0.1,0.1-0.2,0.1-0.3c0.2,0,0.3,0.1,0.4,0.1c0,0,0.1,0,0.1,0.1s0,0.1,0,0.1c0,0-0.1,0.1-0.1,0.1
		c-0.1,0.2-0.2,0.3-0.2,0.5h0.2c0.8,0,1,0,1.1,0c0,0,0.1,0,0.1,0.1V77.6z M68.5,76.3C68.5,76.4,68.5,76.4,68.5,76.3
		c-0.1,0.1-0.4,0-1.1,0h-1.8c-0.8,0-1,0-1,0c-0.1,0-0.1,0-0.1-0.1V76c0,0,0-0.1,0.1-0.1c0,0,0.3,0,1,0h0.6v-0.1c0-0.3,0-0.5-0.1-0.7
		c0.2,0,0.4,0,0.5,0c0.1,0,0.1,0,0.1,0.1c0,0,0,0.1,0,0.1c0,0.1,0,0.2,0,0.4V76h0.8c0.8,0,1,0,1,0c0.1,0,0.1,0,0.1,0.1V76.3z
		 M67.6,78.5h-2.4v0.6h2.4V78.5z M67.6,79.4h-2.4V80h2.4V79.4z"/>
	<path d="M74.6,78.2C74.6,78.3,74.6,78.3,74.6,78.2c-0.1,0.1-0.4,0.1-1.1,0.1h-0.7v0.9h0.5c0.7,0,0.9,0,1,0c0.1,0,0.1,0,0.1,0.1
		c0,0,0,0.3,0,0.8v0.3c0,0.4,0,0.7,0,0.9c0,0.2,0,0.4-0.2,0.5c-0.1,0.1-0.3,0.1-0.6,0.1c-0.2,0-0.2,0-0.2-0.2c0-0.1-0.1-0.2-0.1-0.3
		c0.2,0,0.3,0,0.4,0c0.2,0,0.2-0.1,0.2-0.2v-1.5h-1.1v1.3c0,1,0,1.4,0,1.5c0,0.1,0,0.1-0.1,0.1h-0.4c-0.1,0-0.1,0-0.1-0.1
		c0,0,0-0.5,0-1.5v-1.3h-1.1v1.3c0,0.5,0,0.8,0,0.8s0,0.1-0.1,0.1h-0.4c-0.1,0-0.1,0-0.1-0.1s0-0.3,0-0.8v-0.9c0-0.5,0-0.7,0-0.7
		c0-0.1,0-0.1,0.1-0.1c0,0,0.3,0,1,0h0.5v-0.9h-0.8c-0.8,0-1,0-1.1,0c-0.1,0-0.1,0-0.1-0.1v-0.3c0-0.1,0-0.1,0.1-0.1
		c0,0,0.3,0,1.1,0h0.8v-1h-1c-0.1,0.2-0.2,0.4-0.4,0.7c0,0.1-0.1,0.1-0.1,0.1c0,0-0.1,0-0.1-0.1c-0.1-0.1-0.2-0.1-0.3-0.1
		c0.4-0.5,0.6-1,0.7-1.5c0-0.1,0-0.2,0-0.3c0.2,0,0.3,0.1,0.4,0.1c0.1,0,0.1,0,0.1,0.1s0,0.1,0,0.1c0,0-0.1,0.1-0.1,0.2
		c0,0.1-0.1,0.2-0.1,0.4h0.8v-0.4c0-0.3,0-0.5-0.1-0.7c0.2,0,0.4,0,0.5,0c0,0,0.1,0,0.1,0.1c0,0,0,0.1,0,0.1c0,0.1,0,0.2,0,0.5v0.4
		h0.5c0.6,0,0.8,0,0.9,0c0,0,0.1,0,0.1,0.1v0.3c0,0.1,0,0.1-0.1,0.1c0,0-0.2,0-0.9,0h-0.5v1h0.7c0.8,0,1,0,1.1,0
		c0.1,0,0.1,0,0.1,0.1V78.2z M75.1,77.1c0-0.6,0-0.8-0.1-1.1c0.2,0,0.4,0,0.5,0c0.1,0,0.1,0,0.1,0.1c0,0,0,0.1,0,0.1
		c0,0.1,0,0.2,0,0.8v2.2c0,0.7,0,1,0,1c0,0.1,0,0.1-0.1,0.1h-0.4c-0.1,0-0.1,0-0.1-0.1c0,0,0-0.3,0-1V77.1z M76.6,76.4
		c0-0.5,0-0.7-0.1-1c0.2,0,0.4,0,0.5,0c0.1,0,0.1,0,0.1,0.1c0,0.1,0,0.1,0,0.2c0,0.1,0,0.2,0,0.7v3.9c0,0.4,0,0.9,0,1.2
		c0,0.3-0.1,0.5-0.2,0.6c-0.2,0.1-0.4,0.2-1.1,0.2c-0.2,0-0.2,0-0.2-0.2c0-0.1-0.1-0.3-0.2-0.4c0.3,0,0.4,0,0.7,0
		c0.3,0,0.4-0.1,0.4-0.4V76.4z"/>
	<path d="M81.9,80.5c0,0.4,0,0.7,0,1c0,0.2,0,0.4-0.2,0.6c-0.1,0.1-0.3,0.1-0.7,0.2c-0.2,0-0.2,0-0.2-0.1c0-0.1-0.1-0.2-0.1-0.3
		c0.2,0,0.3,0,0.5,0c0.2,0,0.2-0.1,0.2-0.3v-1.8h-1.2c-0.1,1.1-0.3,1.9-0.7,2.6c0,0.1-0.1,0.1-0.1,0.1c0,0-0.1,0-0.1-0.1
		c-0.1-0.1-0.2-0.2-0.3-0.2c0.6-1,0.8-2,0.8-4v-1.2c0-0.8,0-1.2,0-1.2c0-0.1,0-0.1,0.1-0.1c0,0,0.2,0,0.7,0h0.6c0.5,0,0.6,0,0.7,0
		c0.1,0,0.1,0,0.1,0.1c0,0,0,0.4,0,1.2V80.5z M81.4,77.8h-1.2V78c0,0.5,0,0.8,0,1.2h1.2V77.8z M81.4,76h-1.2v1.4h1.2V76z M85.2,78.3
		c0.1,0,0.1,0,0.2,0s0.1,0,0.1,0c0,0,0.1,0,0.2,0.2c0.1,0.1,0.1,0.2,0.1,0.2c0,0,0,0.1-0.1,0.1c-0.1,0-0.1,0.1-0.1,0.3
		c-0.2,0.6-0.4,1.2-0.8,1.8c0.4,0.4,0.8,0.8,1.4,1.1c-0.1,0.1-0.2,0.2-0.2,0.3c0,0.1-0.1,0.1-0.1,0.1c0,0-0.1,0-0.1-0.1
		c-0.5-0.3-0.9-0.7-1.3-1.1c-0.3,0.4-0.6,0.7-1,1.1c0,0-0.1,0.1-0.1,0.1c0,0-0.1,0-0.1-0.1c-0.1-0.1-0.2-0.2-0.2-0.2
		c0.5-0.3,0.9-0.7,1.2-1.2c-0.4-0.6-0.7-1.2-0.9-2.1H83v2c0,1.1,0,1.6,0,1.7c0,0.1,0,0.1-0.1,0.1h-0.4c-0.1,0-0.1,0-0.1-0.1
		c0,0,0-0.5,0-1.6v-3.4c0-1.1,0-1.6,0-1.6c0-0.1,0-0.1,0.1-0.1c0,0,0.3,0,1,0h1.3c0.7,0,0.9,0,0.9,0c0.1,0,0.1,0,0.1,0.1
		c0,0.1,0,0.3,0,0.4c0,0.5-0.1,0.9-0.2,1.1c-0.1,0.3-0.4,0.5-0.7,0.5c-0.2,0-0.4,0-0.5,0c-0.1,0-0.1,0-0.2-0.2
		c0-0.1-0.1-0.2-0.1-0.3c0.3,0,0.5,0.1,0.8,0.1c0.2,0,0.3-0.1,0.4-0.3c0.1-0.2,0.1-0.6,0.1-0.9H83v2.3H85.2z M83.9,78.7
		c0.2,0.7,0.4,1.2,0.7,1.7c0.3-0.5,0.5-1.1,0.7-1.7H83.9z"/>
	<path d="M94.9,77.6C94.9,77.7,94.9,77.7,94.9,77.6c-0.1,0.1-0.4,0-1.1,0h-0.3c-0.2,1-0.6,1.9-1.2,2.6c0.7,0.4,1.5,0.9,2.3,1.4
		c0,0,0,0,0,0.1l-0.2,0.2c-0.1,0.1-0.1,0.1-0.2,0.1c-0.8-0.5-1.5-1-2.2-1.4c-0.8,0.8-1.9,1.3-3.4,1.5c-0.2,0-0.2,0-0.2-0.1
		c-0.1-0.1-0.1-0.2-0.2-0.3c1.5-0.2,2.6-0.6,3.4-1.3c-0.6-0.3-1.2-0.6-1.8-0.8c-0.1,0.1-0.2,0.3-0.3,0.4c0,0.1-0.1,0.1-0.2,0
		L89.1,80c-0.1,0-0.1-0.1-0.1-0.1c0.2-0.3,0.4-0.6,0.5-0.8c0.2-0.4,0.5-0.9,0.7-1.4h-1c-0.8,0-1,0-1.1,0c-0.1,0-0.1,0-0.1-0.1v-0.4
		c0-0.1,0-0.1,0.1-0.1c0,0,0.3,0,1.1,0h1.2c0.2-0.4,0.3-0.8,0.4-1.2c0.1-0.2,0.1-0.4,0.1-0.6c0.2,0,0.4,0.1,0.5,0.1
		c0.1,0,0.1,0.1,0.1,0.1c0,0,0,0.1-0.1,0.1c0,0.1-0.1,0.2-0.1,0.3c-0.1,0.4-0.3,0.8-0.4,1.2h2.9c0.8,0,1,0,1.1,0
		c0.1,0,0.1,0,0.1,0.1V77.6z M90.7,77.7c-0.2,0.6-0.5,1.1-0.8,1.6c0.6,0.2,1.3,0.5,1.9,0.8c0.5-0.6,0.9-1.4,1.1-2.4H90.7z"/>
	<path d="M103.8,78.9C103.8,78.9,103.8,78.9,103.8,78.9c-0.1,0.1-0.4,0-1.1,0h-2.1v1.3c0,0.6,0,0.9,0,1.1c0,0.4-0.1,0.6-0.3,0.7
		c-0.2,0.2-0.7,0.2-1.4,0.2c-0.2,0-0.2,0-0.2-0.2c0-0.2-0.1-0.3-0.2-0.4c0.3,0,0.5,0,1.1,0c0.3,0,0.4-0.1,0.4-0.5v-2.4H98
		c-0.8,0-1,0-1.1,0c-0.1,0-0.1,0-0.1-0.1v-0.4c0-0.1,0-0.1,0.1-0.1c0,0,0.3,0,1.1,0h2.1c0-0.4,0-0.7-0.1-1c0.1,0,0.3,0,0.4,0.1
		c0.7-0.4,1.2-0.9,1.7-1.3h-3.3c-0.8,0-1.1,0-1.1,0c-0.1,0-0.1,0-0.1-0.1v-0.4c0-0.1,0-0.1,0.1-0.1c0,0,0.3,0,1.1,0h3.4
		c0.1,0,0.1,0,0.1,0s0,0,0.1,0c0,0,0.1,0,0.2,0.1c0.2,0.2,0.2,0.2,0.2,0.3c0,0.1,0,0.1-0.1,0.1c-0.1,0-0.2,0.1-0.3,0.2
		c-0.5,0.5-1.1,1-2,1.5v0.5h2.1c0.8,0,1,0,1.1,0c0.1,0,0.1,0,0.1,0.1V78.9z"/>
	<path d="M108.4,75.7c0.1,0,0.1,0.1,0.1,0.1c0,0.1,0,0.2,0,0.3c0,0.2,0,0.3,0,0.5c0.1,0.6,0.2,1.1,0.3,1.6c0.5-0.2,1-0.5,1.4-0.7
		c0.3-0.1,0.4-0.2,0.5-0.4c0.2,0.2,0.3,0.3,0.4,0.4c0.1,0.1,0,0.2-0.1,0.2c-0.2,0-0.5,0.1-0.7,0.3c-0.6,0.3-1.3,0.6-1.8,0.9
		c-0.8,0.5-1.2,0.9-1.2,1.4c0,0.7,0.7,0.9,1.9,0.9c0.7,0,1.5-0.1,2.1-0.2c0.1,0,0.1,0,0.1,0.1c0,0.1,0,0.3,0,0.4
		c0,0.1,0,0.1-0.1,0.1c-0.7,0.1-1.2,0.1-2.1,0.1c-1.4,0-2.4-0.3-2.4-1.4c0-0.8,0.5-1.4,1.6-2c-0.2-0.6-0.3-1.4-0.4-2
		c0-0.4-0.1-0.6-0.2-0.8C108,75.6,108.2,75.6,108.4,75.7z"/>
	<path d="M116.6,77.5c0.1,0,0.1,0,0.2,0c0,0,0,0,0.1,0c0,0,0.1,0,0.2,0.1c0.1,0.1,0.2,0.2,0.2,0.2c0,0,0,0.1-0.1,0.1
		c0,0-0.1,0.1-0.1,0.2c-0.5,1.3-1.2,2.3-2.3,3.2c-0.1,0-0.1,0.1-0.1,0.1c0,0-0.1,0-0.1-0.1c-0.1-0.1-0.2-0.2-0.3-0.3
		c1.2-0.8,1.9-1.8,2.3-3.1h-1.1c-0.6,0-0.8,0-0.8,0c-0.1,0-0.1,0-0.1-0.1v-0.4c0,0,0-0.1,0.1-0.1c0,0,0.2,0,0.8,0H116.6z
		 M118.2,76.6c0.1,0.7,0.4,1.3,0.8,1.9c0.5-0.4,0.9-0.8,1.3-1.3c0.1-0.1,0.2-0.2,0.2-0.4c0.2,0.1,0.3,0.2,0.4,0.3
		c0.1,0,0.1,0.1,0.1,0.1c0,0,0,0.1-0.1,0.1c-0.1,0-0.2,0.1-0.4,0.3c-0.4,0.4-0.8,0.8-1.3,1.2c0.6,0.9,1.5,1.7,2.4,2.2
		c-0.1,0.1-0.2,0.2-0.3,0.3c0,0.1-0.1,0.1-0.1,0.1c0,0-0.1,0-0.1-0.1c-1.3-0.8-2.5-2.2-2.9-3.8c0,1.4,0.1,3,0.1,4
		c0,0.3-0.1,0.5-0.3,0.6c-0.2,0.1-0.4,0.1-1,0.1c-0.2,0-0.2,0-0.2-0.2c0-0.1-0.1-0.3-0.2-0.4c0.2,0,0.5,0,0.7,0
		c0.3,0,0.5-0.1,0.5-0.3v-5.3c0-0.4,0-0.7-0.1-0.9c0.2,0,0.4,0,0.5,0c0.1,0,0.1,0,0.1,0.1c0,0.1,0,0.1,0,0.2c0,0.1,0,0.2,0,0.6V76.6
		z"/>
	<path d="M126.2,76.2c-0.1-0.3-0.2-0.4-0.3-0.6c0.2,0,0.5-0.1,0.6-0.1c0.1,0,0.2,0,0.2,0.1c0,0,0,0.1,0,0.2c0,0.1,0.1,0.3,0.1,0.5
		c0.1,0.2,0.2,0.4,0.3,0.7c0.6-0.2,1.3-0.3,1.8-0.5c0,0,0.1,0,0.1,0c0,0.1,0.1,0.2,0.1,0.4c0,0.1,0,0.1,0,0.1
		c-0.5,0.2-1.1,0.3-1.7,0.5c0.3,0.6,0.7,1.3,1.3,2c0.1,0.1,0.1,0.1,0.2,0.2c0,0,0.1,0,0.1,0.1c0,0,0,0.1,0,0.1
		c-0.1,0.1-0.2,0.2-0.2,0.3c0,0-0.1,0.1-0.1,0.1c0,0,0,0-0.1,0c-0.1-0.1-0.2-0.1-0.3-0.2c-0.5-0.2-1-0.4-1.8-0.4
		c-1,0-1.5,0.3-1.5,0.9c0,0.7,1,1,2.2,1c0.4,0,0.8,0,1.2-0.1c0,0.2-0.1,0.4-0.1,0.5c0,0.1,0,0.1-0.1,0.1c-0.1,0-0.6,0-0.9,0
		c-1.5,0-2.7-0.5-2.7-1.5c0-0.9,0.9-1.4,2-1.4c0.7,0,1.3,0.2,1.7,0.4c-0.5-0.6-0.9-1.1-1.2-1.8c-0.6,0.1-1.2,0.2-1.7,0.2
		c-0.2,0-0.5,0-0.7,0c-0.1,0-0.1,0-0.1-0.1c0-0.1-0.1-0.2-0.1-0.4c0.3,0,0.5,0,0.8,0c0.5,0,1-0.1,1.6-0.2
		C126.4,76.8,126.4,76.6,126.2,76.2z"/>
	<path d="M134.7,77.7c0.6-0.1,1.1-0.2,1.5-0.3c0.1,0,0.2-0.1,0.2-0.1c0,0,0.1,0,0.1,0c0,0,0,0,0.1,0c0.1,0.1,0.2,0.2,0.3,0.3
		c0,0,0.1,0.1,0.1,0.1c0,0,0,0.1-0.1,0.1c-0.1,0-0.2,0.1-0.3,0.2c-0.6,0.6-1.1,1.2-1.7,1.8c0.2-0.1,0.3-0.1,0.5-0.1
		c0.4,0,0.7,0.3,0.8,0.9c0.2,0.8,0.3,0.9,1.2,0.9c0.4,0,0.8,0,1.2-0.1c0.1,0,0.1,0,0.1,0.1c0,0.1,0,0.3,0,0.4c0,0.1,0,0.1-0.1,0.1
		c-0.4,0.1-0.8,0.1-1.1,0.1c-1.2,0-1.5-0.3-1.7-1.1c-0.1-0.6-0.2-0.9-0.6-0.9c-0.3,0-0.6,0.2-0.9,0.5c-0.4,0.4-0.9,1-1.2,1.4
		c0,0-0.1,0-0.1,0c-0.1-0.1-0.2-0.2-0.3-0.3c0,0,0-0.1,0-0.1c0.6-0.6,1.2-1.2,1.5-1.6c0.5-0.5,1.1-1.2,1.9-2
		c-0.9,0.2-1.5,0.3-2.2,0.5c-0.2,0-0.3,0.1-0.3,0.1c-0.1,0-0.1,0-0.1,0c0,0-0.1,0-0.1-0.1c-0.1-0.1-0.1-0.3-0.2-0.6
		C133.5,77.9,133.9,77.8,134.7,77.7z M136.6,76.1c0.1,0,0.1,0,0.1,0.1c0,0.1-0.1,0.3-0.1,0.4c0,0-0.1,0.1-0.1,0.1
		c-0.7-0.2-1.5-0.4-2-0.7c0,0-0.1,0,0-0.1c0-0.1,0.1-0.3,0.2-0.4C135.2,75.7,135.9,75.9,136.6,76.1z"/>
	<path d="M143.9,75.7C144,75.7,144,75.7,143.9,75.7c0.1,0.1,0.1,0.2,0,0.2c0,0.1-0.1,0.2-0.1,0.3c0,0.2-0.1,0.3-0.1,0.5
		c0.7-0.1,1.4-0.2,2.2-0.3c0.1,0,0.1,0,0.1,0.1c0,0.1,0,0.2,0,0.3c0,0.1,0,0.1-0.1,0.1c-1,0.2-1.6,0.3-2.3,0.4
		c0,0.4-0.1,0.8-0.1,1.1c0.4-0.1,1-0.2,1.5-0.2c0.1-0.2,0.1-0.4,0.1-0.7c0.2,0.1,0.4,0.1,0.4,0.2c0.1,0,0.1,0.1,0.1,0.1
		c0,0.1-0.1,0.1-0.1,0.2c0,0.1-0.1,0.1-0.1,0.2c1.1,0.2,1.8,0.9,1.8,1.8c0,1.3-1.1,1.9-2.3,2.2c-0.1,0-0.1,0-0.2-0.1
		c0-0.1-0.1-0.2-0.3-0.3c0.6-0.1,1.2-0.3,1.6-0.6c0.3-0.2,0.7-0.6,0.7-1.3c0-0.9-0.7-1.3-1.4-1.4c-0.4,0.9-1,1.6-1.6,2.2
		c0,0.2,0.1,0.3,0.2,0.4c0,0.1,0,0.1,0,0.1c-0.1,0.1-0.2,0.1-0.3,0.2c0,0-0.1,0-0.1,0c0-0.1-0.1-0.2-0.1-0.4
		c-0.6,0.5-1.1,0.7-1.5,0.7c-0.5,0-0.7-0.4-0.7-0.8c0-0.8,0.7-1.8,1.9-2.4c0-0.5,0-0.9,0.1-1.3c-0.5,0-0.8,0-1,0c-0.2,0-0.3,0-0.4,0
		c-0.1,0-0.1,0-0.1-0.1c0-0.1,0-0.2,0-0.4c0.5,0,1,0,1.6,0c0-0.3,0.1-0.5,0.1-0.7c0-0.2,0-0.4,0-0.5
		C143.6,75.5,143.8,75.6,143.9,75.7z M141.8,80.8c0,0.2,0.1,0.4,0.4,0.4c0.3,0,0.7-0.2,1.2-0.6c-0.1-0.5-0.2-1-0.2-1.6
		C142.2,79.5,141.8,80.2,141.8,80.8z M145,78.5c-0.4,0-0.9,0.1-1.4,0.2c0,0.6,0.1,1,0.1,1.5C144.1,79.8,144.7,79,145,78.5z"/>
	<path d="M152,75.6c0.1,0,0.1,0.1,0.1,0.1c0,0,0,0.1,0,0.1c0,0.1,0,0.1-0.1,0.3c0,0.4,0,0.7-0.1,1.1c0.1,0.1,0.2,0.1,0.3,0.2
		c0,0,0.1,0.1,0,0.2c-0.1,0.2-0.2,0.4-0.3,0.6c0,0.1,0,0.2,0,0.3c0.3-0.4,0.6-0.7,0.9-0.9c0.5-0.5,1-0.8,1.4-0.8
		c0.6,0,0.9,0.4,0.9,1c0,0.4,0,0.9-0.1,1.5c0,0.6-0.1,1.1-0.1,1.3c0,0.5,0.1,0.6,0.4,0.6c0.2,0,0.4-0.1,0.7-0.3
		c0.1-0.1,0.3-0.4,0.5-0.8c0.1,0.2,0.1,0.3,0.2,0.4c0.1,0.1,0.1,0.1,0,0.3c-0.4,0.6-0.8,0.9-1.4,0.9c-0.6,0-0.9-0.3-0.9-1
		c0-0.4,0-0.8,0.1-1.4c0-0.6,0.1-1,0.1-1.4c0-0.4-0.1-0.7-0.4-0.7c-0.3,0-0.6,0.2-1.1,0.6c-0.4,0.3-0.7,0.7-1.2,1.3c0,0.8,0,1.9,0,3
		c0,0,0,0.1-0.1,0.1c-0.1,0-0.3,0-0.4,0c0,0-0.1,0-0.1-0.1c0-1.2,0-2,0-2.7c-0.4,0.5-0.8,1.1-1.2,1.7c0,0.1-0.1,0.1-0.1,0
		c-0.1-0.1-0.2-0.2-0.3-0.3c0,0,0-0.1,0-0.1c0.6-0.8,1.1-1.5,1.6-2.2c0-0.3,0-0.5,0-0.7c-0.4,0.1-0.8,0.2-1.1,0.4
		c-0.1,0-0.2,0.1-0.2,0.1s-0.1,0-0.1-0.1c-0.1-0.1-0.2-0.3-0.2-0.5c0.2,0,0.4,0,0.6-0.1c0.3-0.1,0.6-0.2,1.1-0.3c0-0.4,0-0.7,0-1.1
		c0-0.3,0-0.5-0.1-0.8C151.7,75.5,151.9,75.6,152,75.6z"/>
	<path d="M160,76.1c0.1,0.1,0.1,0.1,0,0.2c0,0.1-0.1,0.2-0.1,0.4c-0.2,1.2-0.4,2.2-0.4,3c0,0.5,0,0.9,0.1,1.4
		c0.2-0.4,0.4-0.8,0.6-1.3c0.1,0.2,0.1,0.2,0.2,0.3c0,0.1,0,0.1,0,0.2c-0.3,0.6-0.4,1.1-0.5,1.3c0,0.1,0,0.3,0,0.4
		c0,0.1,0,0.1,0,0.1c-0.1,0-0.2,0.1-0.4,0.1c-0.1,0-0.1,0-0.1-0.1c-0.3-0.7-0.3-1.6-0.3-2.3c0-1,0.1-1.8,0.3-3c0-0.3,0.1-0.6,0-0.8
		C159.6,75.9,159.9,76,160,76.1z M163,77.9c-0.6,0-1.2,0-1.8,0c0,0-0.1,0-0.1-0.1c0-0.1,0-0.3,0-0.4c0.7,0,1.3,0,1.9,0
		c0-0.3,0-0.6,0-0.9c0-0.2,0-0.4-0.1-0.7c0.3,0,0.4,0.1,0.6,0.1c0.1,0,0.1,0.1,0.1,0.1c0,0,0,0.1,0,0.1c0,0.1-0.1,0.2-0.1,0.4
		c0,0.3,0,0.6,0,0.9c0.4,0,0.8-0.1,1.3-0.2c0.1,0,0.1,0,0.1,0.1c0,0.1,0,0.2,0,0.3c0,0.1,0,0.1-0.1,0.1c-0.4,0.1-0.9,0.2-1.3,0.2
		c0,0.9,0,1.7,0.1,2.4c0.5,0.2,1,0.5,1.4,0.8c0,0,0,0,0,0.1c0,0.1-0.1,0.2-0.2,0.4c0,0-0.1,0-0.1,0c-0.4-0.3-0.7-0.5-1.1-0.7
		c0,0.7-0.4,1.1-1.3,1.1c-0.8,0-1.2-0.3-1.2-0.9c0-0.6,0.6-1,1.2-1c0.3,0,0.6,0,0.8,0.1C163.1,79.5,163,78.8,163,77.9z M163.1,80.7
		c-0.3-0.1-0.6-0.1-0.9-0.1c-0.4,0-0.7,0.2-0.7,0.5c0,0.3,0.3,0.5,0.8,0.5c0.6,0,0.8-0.3,0.8-0.7V80.7z M164.3,75.5
		C164.3,75.4,164.3,75.4,164.3,75.5c0.3,0.3,0.6,0.7,0.8,1.1c0,0,0,0.1,0,0.1l-0.3,0.2c0,0-0.1,0-0.1,0c-0.2-0.4-0.4-0.8-0.7-1.1
		L164.3,75.5z M165,75.1C165,75.1,165.1,75.1,165,75.1c0.3,0.3,0.6,0.7,0.8,1c0,0,0,0.1,0,0.1l-0.2,0.2c0,0-0.1,0-0.1,0
		c-0.2-0.4-0.4-0.8-0.7-1.1L165,75.1z"/>
	<path d="M174.2,81.9C174.2,81.9,174.2,81.9,174.2,81.9c-0.1,0.1-0.4,0-1.1,0h-4.7c-0.8,0-1,0-1.1,0c-0.1,0-0.1,0-0.1-0.1v-0.4
		c0-0.1,0-0.1,0.1-0.1c0,0,0.3,0,1.1,0h2.1v-1.8h-1c-0.8,0-1.1,0-1.1,0c-0.1,0-0.1,0-0.1-0.1v-0.4c0-0.1,0-0.1,0.1-0.1
		c0,0,0.3,0,1.1,0h1v-1.7h-1.9c-0.2,0.4-0.5,0.9-0.8,1.3c0,0-0.1,0.1-0.1,0.1c0,0-0.1,0-0.1-0.1c-0.1-0.1-0.2-0.1-0.3-0.2
		c0.6-0.7,1-1.5,1.3-2.4c0.1-0.2,0.1-0.3,0.1-0.5c0.2,0,0.4,0.1,0.5,0.1c0.1,0,0.1,0,0.1,0.1c0,0,0,0.1-0.1,0.1c0,0-0.1,0.1-0.1,0.3
		c-0.1,0.2-0.2,0.5-0.3,0.7h1.7v-0.7c0-0.6,0-0.8-0.1-1.1c0.2,0,0.4,0,0.6,0c0.1,0,0.1,0,0.1,0.1c0,0,0,0.1,0,0.1c0,0.1,0,0.3,0,0.8
		v0.7h1.5c0.8,0,1.1,0,1.1,0c0.1,0,0.1,0,0.1,0.1v0.4c0,0.1,0,0.1-0.1,0.1c0,0-0.3,0-1.1,0H171v1.7h1.1c0.8,0,1.1,0,1.1,0
		c0.1,0,0.1,0,0.1,0.1v0.4c0,0.1,0,0.1-0.1,0.1c0,0-0.3,0-1.1,0H171v1.8h2.1c0.8,0,1,0,1.1,0c0.1,0,0.1,0,0.1,0.1V81.9z"/>
	<path d="M178.9,76.1c-0.1-0.2-0.1-0.4-0.3-0.5c0.2,0,0.5-0.1,0.6-0.1c0.1,0,0.1,0,0.1,0.1c0,0,0,0.1,0,0.1c0,0.1,0,0.1,0.1,0.3
		c0.1,0.2,0.1,0.4,0.2,0.5c0.6-0.1,1.1-0.2,1.8-0.5c0,0,0.1,0,0.1,0c0,0.1,0.1,0.2,0.1,0.3c0,0.1,0,0.1-0.1,0.1
		c-0.6,0.2-1.2,0.3-1.7,0.4c0.1,0.3,0.2,0.6,0.4,0.9c0.6-0.1,1.1-0.3,1.6-0.5c0.1,0,0.1,0,0.1,0c0,0.1,0.1,0.2,0.1,0.3
		c0,0.1,0,0.1-0.1,0.1c-0.5,0.2-1,0.3-1.5,0.4c0.3,0.6,0.8,1.2,1.2,1.6c0,0,0.1,0.1,0,0.1c0,0.1-0.1,0.2-0.2,0.3
		c-0.1,0.1-0.1,0.1-0.2,0c-0.2-0.1-0.4-0.2-0.6-0.3c-0.4-0.2-0.9-0.2-1.5-0.2c-0.8,0-1.4,0.2-1.4,0.8c0,0.6,0.8,0.8,2,0.8
		c0.3,0,0.6,0,0.8,0c0.1,0,0.1,0,0.1,0.1c0,0.1,0,0.3-0.1,0.4c0,0.1,0,0.1-0.1,0.1c-0.2,0-0.4,0-0.7,0c-1.6,0-2.5-0.4-2.5-1.4
		c0-0.8,0.7-1.3,1.8-1.3c0.7,0,1.2,0.1,1.7,0.3c-0.3-0.3-0.6-0.8-0.9-1.3c-0.8,0.1-1.6,0.2-2.3,0.3c-0.1,0-0.1,0-0.1-0.1
		c0-0.1-0.1-0.3-0.1-0.4c0.8,0,1.6-0.1,2.3-0.2c-0.1-0.3-0.3-0.6-0.4-0.9c-0.6,0.1-1.4,0.2-2.1,0.2c-0.1,0-0.1,0-0.1-0.1
		c0-0.1,0-0.2-0.1-0.4c0.8,0,1.6-0.1,2.1-0.2C179.1,76.5,179,76.3,178.9,76.1z"/>
	<path d="M189.3,76.8c-1.2,0.2-2.2,0.4-3.2,0.6c-0.3,0.1-0.4,0.1-0.5,0.1c-0.1,0-0.1,0.1-0.2,0.1c0,0-0.1,0-0.1-0.1
		c-0.1-0.2-0.2-0.4-0.2-0.6c0.3,0,0.5,0,1-0.1c1.2-0.2,2.8-0.4,5-0.7c0.1,0,0.1,0,0.1,0.1c0,0.1,0,0.3,0,0.4c0,0.1,0,0.1-0.1,0.1
		c-0.4,0-0.8,0.1-1.2,0.2c-1.2,0.5-2.1,1.4-2.1,2.5c0,1.3,1.2,1.7,2.3,1.8c0.1,0,0.1,0,0.1,0.1c0,0.1,0,0.3,0,0.4
		c0,0.1,0,0.1-0.1,0.1c-1.4-0.1-2.8-0.7-2.8-2.3C187.4,78.5,188.1,77.5,189.3,76.8L189.3,76.8z"/>
	<path d="M194.9,76.6C194.9,76.6,194.9,76.6,194.9,76.6c0.1,0.1,0.1,0.2,0,0.2c0,0.1-0.1,0.3-0.1,0.7c0,0.5,0,1,0.1,1.8
		c0.1,0.9,0.5,1.6,0.8,1.6c0.3,0,0.6-0.5,0.9-1.3c0.1,0.2,0.2,0.3,0.3,0.4c0.1,0.1,0.1,0.1,0.1,0.2c-0.2,0.6-0.7,1.3-1.2,1.3
		c-0.7,0-1.2-0.9-1.4-2.2c-0.1-0.8-0.1-1.7-0.1-2.2c0-0.3,0-0.5-0.1-0.8C194.5,76.4,194.7,76.5,194.9,76.6z M198.7,77.2
		c0,0,0.1,0,0.1,0c0.8,0.7,1.4,1.7,1.6,2.8c0,0.1,0,0.1-0.1,0.1c-0.1,0.1-0.2,0.1-0.4,0.2c-0.1,0-0.1,0-0.1-0.1
		c-0.2-1.2-0.7-2.1-1.5-2.8C198.5,77.3,198.6,77.2,198.7,77.2z"/>
	<path d="M204.1,75.9c0.1,0,0.1,0.1,0.1,0.1c0,0,0,0.1,0,0.1c0,0.1-0.1,0.3-0.1,0.5c-0.2,0.9-0.3,1.8-0.3,2.6c0,0.7,0.1,1.2,0.2,1.6
		c0.2-0.5,0.4-0.8,0.6-1.3c0.1,0.2,0.1,0.3,0.2,0.4c0,0,0,0.1,0,0.1c0,0,0,0.1-0.1,0.2c-0.2,0.4-0.3,0.7-0.4,1.1c0,0.1,0,0.1,0,0.2
		s0,0.1,0,0.2c0,0,0,0.1,0,0.1c-0.1,0.1-0.2,0.1-0.3,0.1c-0.1,0-0.1,0-0.1-0.1c-0.2-0.5-0.5-1.5-0.5-2.3c0-0.9,0.1-1.6,0.2-2.4
		c0.1-0.6,0.1-0.9,0.1-1.3C203.8,75.8,204,75.8,204.1,75.9z M207.3,77.8c-0.4,0-0.8,0.1-1.1,0.1c-0.2,0-0.4,0-0.7,0
		c-0.1,0-0.1,0-0.1-0.1c0-0.1,0-0.2,0-0.4c0.3,0,0.6,0,0.9,0c0.3,0,0.7,0,1,0c0-0.6,0-1,0-1.2c0-0.3,0-0.4-0.1-0.6
		c0.3,0,0.5,0,0.6,0.1c0.1,0,0.1,0,0.1,0.1c0,0,0,0.1,0,0.1c0,0.1,0,0.2,0,0.3c0,0.3,0,0.7,0,1.1c0.4,0,0.8-0.1,1.1-0.2
		c0.1,0,0.1,0,0.1,0c0,0.1,0,0.2,0,0.4c0,0.1,0,0.1-0.1,0.1c-0.4,0.1-0.8,0.1-1.2,0.2l0,1.2c0,0.8-0.1,1.4-0.3,1.9
		c-0.2,0.5-0.6,0.9-1.1,1.2c-0.1,0.1-0.1,0.1-0.2,0.1c0,0-0.1,0-0.1-0.1c-0.1-0.1-0.2-0.1-0.4-0.2c0.7-0.4,1.1-0.8,1.3-1.4
		c0.2-0.4,0.3-0.9,0.2-1.8L207.3,77.8z"/>
	<path d="M213.7,78.8c0.6-0.4,1.1-0.6,1.7-0.6c1.2,0,1.9,0.7,1.9,1.8c0,1.2-0.9,2.1-2.6,2.1c-1,0-1.4-0.4-1.4-0.9
		c0-0.4,0.4-0.8,0.9-0.8c0.7,0,1.2,0.5,1.4,1.1c0.7-0.2,1.2-0.7,1.2-1.5c0-0.8-0.6-1.3-1.4-1.3c-0.8,0-1.6,0.4-2.2,0.9
		c-0.3,0.2-0.5,0.4-0.7,0.7c-0.1,0.1-0.1,0.1-0.2,0c-0.1-0.1-0.2-0.2-0.3-0.3c0,0,0-0.1,0-0.1c0.6-0.6,1-1,1.8-1.8
		c0.5-0.5,0.9-1,1.6-1.7c-0.7,0.1-1.3,0.2-2,0.4c-0.1,0-0.2,0-0.3,0.1c-0.1,0-0.1,0-0.2,0c-0.1,0-0.1,0-0.1-0.1
		c-0.1-0.1-0.1-0.3-0.2-0.6c0.3,0,0.5,0,0.7,0c0.6-0.1,1.3-0.2,2-0.3c0.1,0,0.2,0,0.2-0.1c0,0,0.1-0.1,0.1-0.1c0,0,0.1,0,0.1,0.1
		c0.2,0.1,0.3,0.2,0.3,0.3c0,0,0.1,0.1,0.1,0.1c0,0.1,0,0.1-0.1,0.2c-0.1,0-0.2,0.1-0.4,0.3C215,77.4,214.5,78,213.7,78.8
		L213.7,78.8z M214.2,80.8c-0.3,0-0.5,0.1-0.5,0.4c0,0.3,0.3,0.5,0.8,0.5c0.2,0,0.3,0,0.5,0C215,81.1,214.7,80.8,214.2,80.8z"/>
	<path d="M222.2,81.4c0,0.6-0.5,1.1-1.1,1.1s-1.1-0.5-1.1-1.1c0-0.6,0.5-1.1,1.1-1.1S222.2,80.8,222.2,81.4z M220.3,81.4
		c0,0.4,0.3,0.7,0.7,0.7c0.4,0,0.7-0.3,0.7-0.7c0-0.4-0.3-0.7-0.7-0.7C220.7,80.7,220.3,81,220.3,81.4z"/>
</g>
<g>
	<path d="M1008.4,877.8c-1.2-1.5-1.8-2.4-2.2-3.1c-1-1.6-1.3-2.4-1.3-3.7c0-2.1,1.6-3.2,3.1-3.2c1.4,0,2.4,0.7,3,1.9
		c0.1,0.2,0.1,0.4,0.3,0.4s0.2-0.1,0.3-0.4c0.6-1.2,1.6-1.9,3-1.9c1.5,0,3.1,1.1,3.1,3.2c0,1.3-0.3,2.2-1.3,3.7
		c-0.4,0.7-1.1,1.6-2.2,3.1c-0.8,1-1.8,2.2-2.9,3.4C1010.2,880,1009.2,878.8,1008.4,877.8z"/>
	<path d="M1032.2,877.8c-1.2-1.5-1.8-2.4-2.2-3.1c-1-1.6-1.3-2.4-1.3-3.7c0-2.1,1.6-3.2,3.1-3.2c1.4,0,2.4,0.7,3,1.9
		c0.1,0.2,0.1,0.4,0.3,0.4s0.2-0.1,0.3-0.4c0.6-1.2,1.6-1.9,3-1.9c1.5,0,3.1,1.1,3.1,3.2c0,1.3-0.3,2.2-1.3,3.7
		c-0.4,0.7-1.1,1.6-2.2,3.1c-0.8,1-1.8,2.2-2.9,3.4C1034,880,1032.9,878.8,1032.2,877.8z"/>
</g>
<g>
	<path d="M242.8,858.8l4-3.3c1.5-1.2,2-2.2,2-3.2c0-1.2-1-1.9-2.1-1.9c-1.2,0-2.1,0.6-2.8,1.6l-1.1-1c1-1.3,2.3-2.1,4-2.1
		c2,0,3.7,1.3,3.7,3.3c0,1.5-0.7,2.6-2.6,4.2l-2.6,2.2h5.3v1.5h-7.8V858.8z"/>
	<path d="M252.9,854.6c0-3.3,1.9-5.7,4.7-5.7c2.7,0,4.7,2.4,4.7,5.7c0,3.3-2,5.7-4.7,5.7C254.8,860.3,252.9,858,252.9,854.6z
		 M260.6,854.6c0-2.5-1.2-4.2-3-4.2c-1.8,0-3.1,1.7-3.1,4.2c0,2.5,1.3,4.2,3.1,4.2C259.3,858.8,260.6,857.1,260.6,854.6z"/>
	<path d="M266.4,851l-1.9,1.2l-0.7-1.2l2.9-2h1.3v11h-1.6V851z"/>
	<path d="M276.6,850.6h-5.8v-1.5h7.7v1.2l-4.6,9.8H272L276.6,850.6z"/>
	<path d="M281,859.2c0-0.5,0.5-1,1.1-1c0.6,0,1,0.5,1,1c0,0.6-0.5,1.1-1,1.1C281.5,860.3,281,859.8,281,859.2z"/>
	<path d="M285.3,858.6l1-1.2c0.8,0.9,1.9,1.5,3,1.5c1.4,0,2.4-1,2.4-2.2c0-1.3-1-2.1-2.4-2.1c-0.9,0-1.7,0.3-2.4,0.8l-1.1-0.5
		l0.2-5.7h6.8v1.5h-5.2l-0.1,3.3c0.6-0.4,1.3-0.7,2.3-0.7c2,0,3.6,1.2,3.6,3.4c0,2.2-1.7,3.7-4.1,3.7
		C287.6,860.3,286.3,859.6,285.3,858.6z"/>
	<path d="M295.7,859.2c0-0.5,0.5-1,1.1-1c0.6,0,1,0.5,1,1c0,0.6-0.5,1.1-1,1.1C296.2,860.3,295.7,859.8,295.7,859.2z"/>
	<path d="M302.2,851l-1.9,1.2l-0.7-1.2l2.9-2h1.3v11h-1.6V851z"/>
	<path d="M311.9,857.6h-5.5l-0.2-1.3l5.3-7.2h1.9v7h1.6v1.4h-1.6v2.5h-1.6V857.6z M311.9,856.2V851l-3.9,5.2H311.9z"/>
	<path d="M247.7,874.9c0,1.3-1,2.3-2.4,2.3c-1.9,0-2.6-1.5-2.6-3.4c0-2,1.2-3.7,2.8-3.7c0.8,0,1.4,0.3,1.9,0.8l-0.4,0.6
		c-0.4-0.4-0.9-0.7-1.5-0.7c-1.1,0-2,1.3-2,2.9v0.1c0.4-0.7,1.1-1,1.9-1C246.6,872.8,247.7,873.6,247.7,874.9z M246.9,875
		c0-0.9-0.7-1.5-1.6-1.5c-0.9,0-1.5,0.5-1.7,1.3c0.2,1,0.8,1.8,1.7,1.8C246.3,876.5,246.9,875.7,246.9,875z"/>
	<path d="M254.2,874.9c0,1.3-1,2.3-2.4,2.3c-1.9,0-2.6-1.5-2.6-3.4c0-2,1.2-3.7,2.8-3.7c0.8,0,1.4,0.3,1.9,0.8l-0.4,0.6
		c-0.4-0.4-0.9-0.7-1.5-0.7c-1.1,0-2,1.3-2,2.9v0.1c0.4-0.7,1.1-1,1.9-1C253.1,872.8,254.2,873.6,254.2,874.9z M253.4,875
		c0-0.9-0.7-1.5-1.6-1.5c-0.9,0-1.5,0.5-1.7,1.3c0.2,1,0.8,1.8,1.7,1.8C252.8,876.5,253.4,875.7,253.4,875z"/>
	<path d="M263.3,873.8v3.3h-0.7v-3.2c0-0.8-0.5-1.4-1.3-1.4c-0.9,0-1.6,0.6-1.6,1.3v3.3h-0.7v-5.2h0.7v0.8c0.3-0.5,1-0.9,1.7-0.9
		C262.5,871.8,263.3,872.6,263.3,873.8z"/>
	<path d="M264.8,874.5c0-1.5,1.2-2.7,2.7-2.7s2.7,1.2,2.7,2.7c0,1.5-1.2,2.7-2.7,2.7S264.8,875.9,264.8,874.5z M269.4,874.5
		c0-1.1-0.9-2-1.9-2c-1,0-1.9,0.9-1.9,2c0,1.1,0.9,2,1.9,2C268.5,876.5,269.4,875.6,269.4,874.5z"/>
	<path d="M274.3,876.9c-0.3,0.2-0.6,0.3-1,0.3c-0.7,0-1.3-0.5-1.3-1.3v-3.3h-0.8v-0.7h0.8v-1.4h0.7v1.4h1.3v0.7h-1.3v3.3
		c0,0.4,0.3,0.6,0.6,0.6c0.2,0,0.4-0.1,0.5-0.2L274.3,876.9z"/>
	<path d="M279.6,875.9l0.5,0.5c-0.4,0.5-1.4,0.8-2.1,0.8c-1.4,0-2.6-1.1-2.6-2.7c0-1.5,1.2-2.7,2.5-2.7c1.6,0,2.4,1.2,2.4,3h-4.2
		c0.1,1,0.8,1.7,1.8,1.7C278.5,876.5,279.2,876.2,279.6,875.9z M276.1,874.1h3.5c-0.1-0.9-0.6-1.6-1.7-1.6
		C277,872.4,276.2,873.1,276.1,874.1z"/>
	<path d="M281.5,876.4l0.4-0.5c0.6,0.4,1.2,0.6,1.7,0.6c0.7,0,1.1-0.3,1.1-0.8c0-0.6-0.6-0.7-1.3-0.9c-1.2-0.4-1.7-0.7-1.7-1.5
		c0-0.9,0.8-1.5,1.8-1.5c0.6,0,1.3,0.2,1.8,0.6l-0.4,0.6c-0.5-0.3-1-0.5-1.5-0.5c-0.6,0-1.1,0.3-1.1,0.8c0,0.4,0.4,0.6,1.3,0.9
		c0.8,0.3,1.7,0.5,1.7,1.5c0,1-0.8,1.6-1.9,1.6C282.9,877.2,282.1,876.9,281.5,876.4z"/>
</g>
<g>
	<path d="M268.6,811.1v3.2h-27.1v-3.2h6.4c-0.5-1-1.4-2.3-2.2-3.3l3.4-1.2c1.1,1.1,2.3,2.8,2.8,3.9l-1.6,0.6h8.3
		c0.9-1.4,1.9-3.2,2.5-4.5l3.9,1.1c-0.7,1.2-1.5,2.3-2.3,3.4H268.6z M255,831.1c0,1.5-0.3,2.4-1.3,2.9c-1,0.5-2.3,0.6-4.2,0.6
		c-0.2-0.9-0.7-2.2-1.1-3c1.1,0.1,2.3,0.1,2.7,0c0.4,0,0.5-0.1,0.5-0.5v-2.7h-5v6.1h-3.4v-18.1H255V831.1z M246.5,819.3v1.9h5v-1.9
		H246.5z M251.5,825.8v-2h-5v2H251.5z M260.8,828.9h-3.3v-12.2h3.3V828.9z M263.5,815.8h3.5v14.9c0,1.8-0.3,2.6-1.5,3.2
		c-1.1,0.5-2.8,0.6-4.9,0.6c-0.2-1-0.8-2.4-1.3-3.4c1.5,0.1,3.1,0.1,3.6,0c0.5,0,0.6-0.1,0.6-0.5V815.8z"/>
	<path d="M284.9,829.7c1.1-0.1,2-0.3,2.8-0.5c3.8-0.9,6.8-3.6,6.8-8c0-4.1-2.2-7.2-6.2-7.9c-0.4,2.5-0.9,5.3-1.8,8.1
		c-1.8,6-4.3,9.7-7.6,9.7c-3.3,0-6.1-3.6-6.1-8.6c0-6.8,6-12.7,13.7-12.7c7.3,0,12,5.1,12,11.6c0,6.2-3.8,10.7-11.3,11.8
		L284.9,829.7z M282.6,820.7c0.7-2.2,1.2-4.7,1.6-7.2c-4.9,1-7.5,5.3-7.5,8.6c0,3,1.2,4.5,2.3,4.5
		C280.2,826.6,281.4,824.8,282.6,820.7z"/>
	<path d="M302.6,811.6h12.3v2.8h-12.3V811.6z M313.5,833H307v1.2h-3.1V824h9.6V833z M304,815.7h9.6v2.7H304V815.7z M304,819.8h9.6
		v2.7H304V819.8z M313.7,810.2h-9.5v-2.7h9.5V810.2z M307,826.8v3.5h3.4v-3.5H307z M325.6,831c1.4,0,1.6-0.7,1.8-4.4
		c0.8,0.6,2.3,1.2,3.3,1.4c-0.5,5-1.4,6.4-4.8,6.4h-4.9c-3.7,0-4.9-1-4.9-4.8v-11.8h9.5v-6.3H316v-3.4h13.1v14.5h-3.6v-1.5h-5.9v8.4
		c0,1.3,0.2,1.5,1.6,1.5H325.6z"/>
	<path d="M361.2,826.3H358v5.2h-3.6v-1.2H349v0.9c0,1.8-0.4,2.5-1.6,3c-1.1,0.5-2.8,0.5-5.3,0.5c-0.2-0.8-0.7-2.1-1.2-2.8
		c1.4,0.1,3.2,0.1,3.7,0.1c0.6,0,0.8-0.2,0.8-0.8v-0.9h-9.1v-2.6h9.1v-1.4h-11.9v-2.7h11.9v-1.3h-8.9v-2.4h8.9v-1.3h-8.1v-5.9h8.1
		v-1.2h-11.2v-2.8h11.2v-2h3.6v2h11.5v2.8H349v1.2h8.5v5.9H349v1.3h9v3.7h3.1V826.3z M345.4,816.3v-1.4h-4.7v1.4H345.4z M349,814.9
		v1.4h4.9v-1.4H349z M349,823.6h5.4v-1.3H349V823.6z M354.4,826.3H349v1.4h5.4V826.3z"/>
	<path d="M371.6,809c-0.2,0.6-0.6,2.1-0.7,2.6c-0.5,2-1.4,8.5-1.4,11.5c0,0.6,0,1.3,0.1,1.9c0.4-1,0.9-2,1.3-3l1.8,1.5
		c-0.8,2.4-1.8,5.5-2.1,7.1c-0.1,0.4-0.2,1-0.2,1.4c0,0.3,0,0.8,0,1.2l-3.4,0.2c-0.6-2.1-1.2-5.5-1.2-9.5c0-4.5,0.9-10.1,1.2-12.4
		c0.1-0.8,0.3-2,0.3-2.9L371.6,809z M389.9,831.4c-1.2-1.2-2.4-2.2-3.6-3c-0.2,2.8-1.8,4.9-5.8,4.9c-4.1,0-6.7-1.7-6.7-4.9
		c0-3,2.5-5.1,6.6-5.1c0.7,0,1.4,0,1.9,0.1c-0.1-1.8-0.2-4-0.2-6.1c-0.7,0-1.4,0-2.1,0c-1.7,0-3.4-0.1-5.2-0.2v-3.5
		c1.7,0.2,3.4,0.3,5.2,0.3c0.7,0,1.4,0,2.1,0c0-1.5,0-2.7-0.1-3.3c0-0.5-0.1-1.3-0.2-2h4.3c-0.1,0.6-0.1,1.3-0.2,1.9
		c0,0.7-0.1,1.8-0.1,3.1c1.6-0.2,3.2-0.4,4.6-0.7v3.7c-1.4,0.2-3,0.4-4.6,0.5c0.1,2.9,0.2,5.2,0.3,7.3c2.5,1,4.3,2.6,5.7,3.8
		L389.9,831.4z M382.5,826.5c-0.8-0.2-1.6-0.3-2.4-0.3c-1.7,0-2.8,0.7-2.8,1.8c0,1.2,1.2,1.7,2.8,1.7c1.8,0,2.5-1,2.5-2.7V826.5z"/>
	<path d="M403.2,814.6c-1,4.5-2.6,10-5.1,13.3c-0.9-0.6-2.5-1.4-3.5-1.9c2.4-3,3.9-8.3,4.5-12.2L403.2,814.6z M410.8,807v23.1
		c0,2.2-0.5,3.2-1.8,3.8c-1.4,0.6-3.4,0.7-6.4,0.7c-0.2-1-0.9-2.7-1.4-3.7c2,0.1,4.2,0.1,4.8,0.1c0.7,0,0.9-0.2,0.9-0.8V807H410.8z
		 M417.6,813.5c2.4,4.3,4.9,9.7,5.6,13.4l-3.9,1.5c-0.6-3.6-2.9-9.3-5.2-13.6L417.6,813.5z"/>
	<path d="M450.3,814.4c-1.5,0.4-3.2,0.8-5,1.2c1.1,2.4,2.6,5.2,3.8,7.6l-2.1,2.2c-1.6-0.3-4.6-0.8-6.8-1.1l0.3-3.1
		c1,0.1,2.6,0.3,3.5,0.3c-0.7-1.5-1.7-3.6-2.6-5.4c-3.6,0.4-7.8,0.4-12.5,0l-0.1-3.8c4.3,0.5,7.9,0.6,11.1,0.3
		c-0.2-0.5-0.5-1-0.6-1.4c-0.5-1.2-0.8-1.8-1.5-2.8l4.2-0.8c0.5,1.6,1.1,3,1.7,4.5c2.1-0.4,3.9-0.9,5.8-1.5L450.3,814.4z
		 M434.1,822.6c-0.4,1-0.8,2.7-0.8,3.5c0,2.2,1.1,3.6,5.3,3.6c4.1,0,5.9-0.4,8.1-0.9l-0.1,3.9c-1.6,0.3-4.1,0.7-8,0.7
		c-6,0-9.2-2.2-9.2-6.4c0-1.3,0.4-3.2,0.8-4.9L434.1,822.6z"/>
	<path d="M475.3,812.7c4.6,1,7.8,4.8,7.8,10c0,6.3-4.5,9.9-10.7,10.8l-2.3-3.4c6.5-0.6,9.1-3.9,9.1-7.6c0-3.3-1.8-5.7-4.8-6.5
		c-1,3.5-2.3,6.9-4,9.5c0.5,0.6,1.1,1.2,1.6,1.8l-3,2.4c-0.4-0.4-0.7-0.8-1-1.2c-2,2.2-3.7,3.2-5.9,3.2c-2.5,0-4.7-2.1-4.7-5.9
		c0-3.4,1.7-7,4.4-9.4c-0.3-0.8-0.5-1.6-0.8-2.4c-0.3-1.1-0.7-2-1.2-3.1l3.9-1.2c0.2,1,0.4,2,0.7,2.8c0.1,0.6,0.3,1.2,0.5,1.8
		c2.2-1.2,4.4-1.7,6.7-1.8c0.1-0.5,0.2-1,0.3-1.4c0.1-0.9,0.2-2.1,0.2-2.8l4.1,0.4c-0.2,0.8-0.5,2.2-0.7,3L475.3,812.7z
		 M465.8,825.5c-0.9-1.4-1.9-3.4-2.8-5.7c-1.4,1.6-2.2,3.8-2.2,5.6c0,1.4,0.6,2.4,1.7,2.4C463.6,827.7,464.7,826.8,465.8,825.5z
		 M466,817.5c0.7,1.8,1.4,3.5,2.1,4.7c1-1.9,1.9-4.2,2.6-6.4C468.9,816,467.3,816.6,466,817.5z"/>
	<path d="M494.9,809.1c-0.2,0.6-0.6,2.1-0.7,2.6c-0.4,2-1.4,7.9-1.4,10.9c0,0.6,0,1.3,0.1,1.9c0.4-1,0.9-2,1.3-3l1.9,1.4
		c-0.8,2.5-1.8,5.7-2.1,7.3c-0.1,0.4-0.2,1.1-0.2,1.4c0,0.3,0,0.8,0.1,1.2l-3.4,0.2c-0.6-2.1-1.2-5.7-1.2-9.7
		c0-4.5,0.9-9.5,1.2-11.8c0.1-0.8,0.3-2,0.3-2.9L494.9,809.1z M501.9,823.8c-0.2,1-0.4,1.7-0.4,2.5c0,1.3,1.1,2.1,4.1,2.1
		c2.7,0,4.9-0.2,7.4-0.8l0.1,4c-1.9,0.4-4.3,0.6-7.7,0.6c-5.1,0-7.6-1.9-7.6-4.9c0-1.2,0.2-2.5,0.5-3.9L501.9,823.8z M512.3,811.1
		v3.8c-3.7,0.3-9,0.3-12.7,0l0-3.8C503.2,811.6,509.1,811.5,512.3,811.1z"/>
	<path d="M545,823.4c-1.9,1.4-4.1,2.7-5.9,3.8c1.8,2,4.1,3.4,7,4.3c-0.8,0.8-1.8,2.2-2.3,3.2c-6.3-2.2-9.6-6.7-11.6-13.4
		c-1.1,1.1-2.5,2.1-3.9,3v5.6c2.1-0.5,4.4-0.9,6.5-1.4l0.3,3.2c-4.7,1.1-9.7,2.2-13.5,3l-1-3.3c1.2-0.2,2.6-0.5,4.1-0.8v-4.3
		c-1.6,0.8-3.3,1.5-5,2c-0.5-0.8-1.5-2.2-2.3-2.9c3.6-0.9,7.4-2.6,10.2-4.6h-9.1v-3H530V816H521v-2.8h8.9v-1.5h-10.3v-3H530v-2h3.6
		v2h10.6v3h-10.6v1.5h9.4v2.8h-9.4v1.7H545v3h-9.5c0.5,1.5,1,2.8,1.8,4c1.7-1.1,3.5-2.5,4.7-3.6L545,823.4z"/>
	<path d="M557.3,822.5c-1.3,3.5-3.6,7.1-5.7,9.4c-0.8-0.6-2.4-1.7-3.3-2.1c2.2-2,4.2-5.2,5.2-8.2L557.3,822.5z M564.6,819.3v11.1
		c0,2-0.4,3-1.8,3.6c-1.4,0.6-3.4,0.6-6,0.6c-0.2-1.1-0.7-2.7-1.3-3.8c1.7,0.1,3.8,0.1,4.4,0.1c0.6,0,0.8-0.1,0.8-0.6v-11h-11.5
		v-3.6h26.7v3.6H564.6z M573.1,812.1H552v-3.5h21.1V812.1z M571,821.4c2,2.8,4.1,6.4,5,8.9l-3.7,1.7c-0.7-2.5-2.7-6.3-4.6-9.2
		L571,821.4z"/>
	<path d="M604.1,814.4c-1.5,0.4-3.2,0.8-5,1.2c1.1,2.4,2.6,5.2,3.8,7.6l-2.1,2.2c-1.6-0.3-4.6-0.8-6.8-1.1l0.3-3.1
		c1,0.1,2.6,0.3,3.5,0.3c-0.7-1.5-1.7-3.6-2.6-5.4c-3.6,0.4-7.8,0.4-12.5,0l-0.1-3.8c4.3,0.5,7.9,0.6,11.1,0.3
		c-0.2-0.5-0.5-1-0.6-1.4c-0.5-1.2-0.8-1.8-1.5-2.8l4.2-0.8c0.5,1.6,1.1,3,1.7,4.5c2.1-0.4,3.9-0.9,5.8-1.5L604.1,814.4z
		 M587.9,822.6c-0.4,1-0.8,2.7-0.8,3.5c0,2.2,1.1,3.6,5.3,3.6c4.1,0,5.9-0.4,8.1-0.9l-0.1,3.9c-1.6,0.3-4.1,0.7-8,0.7
		c-6,0-9.2-2.2-9.2-6.4c0-1.3,0.4-3.2,0.8-4.9L587.9,822.6z"/>
	<path d="M638.2,830.3c-1.3,1.3-3.2,2.2-5.6,2.2c-2.2,0-3.7-1.7-3.7-4.5c0-3.2,1-7.6,1-10.3c0-1.5-0.8-2.2-2-2.2
		c-2.2,0-5.5,2.7-7.9,5.4c0,0.8-0.1,1.7-0.1,2.4c0,2.4,0,4.9,0.2,7.7c0,0.5,0.1,1.6,0.2,2.3h-4.1c0.1-0.6,0.1-1.7,0.1-2.2
		c0.1-2.3,0.1-4,0.1-6.5c-1.3,1.9-2.7,4.1-3.8,5.5l-2.3-3.3c1.7-2,4.7-6,6.4-8.5l0.1-2.1c-1.4,0.2-3.7,0.5-5.4,0.7l-0.4-3.8
		c0.8,0,1.5,0,2.6,0c0.9-0.1,2.2-0.2,3.4-0.4c0.1-1.1,0.1-2,0.1-2.3c0-0.8,0-1.7-0.1-2.6l4.4,0.1c-0.2,0.8-0.4,2.4-0.7,4.2l1.1,1.4
		c-0.4,0.5-1,1.5-1.5,2.2c0,0.2,0,0.4-0.1,0.6c2.3-2,5.8-4.4,8.6-4.4c3.2,0,4.7,1.9,4.7,4.4c0,3.1-1,7.4-1,10.5
		c0,0.8,0.4,1.3,1.1,1.3c1.1,0,2.5-0.8,3.8-2.1L638.2,830.3z"/>
	<path d="M663,811.4c-0.7,0.5-1.4,0.9-2.1,1.3c-1.6,1.1-4.7,3.8-6.6,5.2c1-0.3,1.8-0.3,2.8-0.3c5,0,8.9,3.2,8.9,7.5
		c0,4.7-3.6,8.4-10.7,8.4c-4.1,0-7.3-1.9-7.3-4.9c0-2.4,2.2-4.6,5.3-4.6c3.7,0,5.9,2.2,6.3,5.1c1.6-0.9,2.4-2.2,2.4-4
		c0-2.7-2.7-4.5-6.2-4.5c-4.6,0-7.5,2.4-10.7,6l-2.7-2.8c2.1-1.7,5.7-4.7,7.4-6.2c1.7-1.4,4.7-3.9,6.2-5.2c-1.5,0-5.6,0.2-7.2,0.3
		c-0.8,0-1.7,0.1-2.4,0.2l-0.1-3.9c0.8,0.1,1.9,0.2,2.7,0.2c1.6,0,7.9-0.2,9.6-0.3c1.2-0.1,1.9-0.2,2.3-0.3L663,811.4z M656.3,830.1
		c-0.2-1.9-1.3-3.2-2.9-3.2c-1.1,0-1.8,0.7-1.8,1.4c0,1.1,1.3,1.9,3,1.9C655.2,830.2,655.7,830.2,656.3,830.1z"/>
	<path d="M694.9,814.6c-0.9,0.5-1.9,1-2.9,1.6c-1.9,0.9-5.6,2.7-8.3,4.4c-2.5,1.6-4.1,3.3-4.1,5.4c0,2.1,2.1,3.3,6.2,3.3
		c3.1,0,7.1-0.5,9.7-1.1l-0.1,4.3c-2.5,0.4-5.7,0.7-9.5,0.7c-5.9,0-10.4-1.6-10.4-6.7c0-3.3,2.1-5.7,4.9-7.8
		c-1.4-2.5-2.8-5.7-4.2-8.8l3.8-1.5c1.1,3.1,2.5,5.9,3.7,8.2c2.4-1.4,5-2.7,6.4-3.5c1.1-0.7,2-1.2,2.7-1.8L694.9,814.6z"/>
	<path d="M715.2,808.4c-0.2,0.8-0.4,1.7-0.5,2.5c-0.1,0.9-0.4,2-0.6,3.1c1-0.1,1.9-0.1,2.5-0.1c3.2,0,5.4,1.4,5.4,5.7
		c0,3.5-0.4,8.2-1.7,10.8c-1,2.1-2.6,2.7-4.9,2.7c-1.1,0-2.5-0.2-3.5-0.4l-0.7-3.9c1.1,0.3,2.8,0.6,3.6,0.6c1,0,1.8-0.3,2.2-1.3
		c0.8-1.6,1.2-5.2,1.2-8.1c0-2.4-1-2.7-2.9-2.7c-0.5,0-1.2,0.1-2,0.1c-1.1,4.5-3.3,11.5-6,15.9l-3.9-1.6c2.9-3.9,4.9-9.8,6-13.9
		c-1,0.1-2,0.2-2.5,0.3c-0.8,0.1-2.4,0.3-3.3,0.5l-0.3-4c1.1,0.1,2.1,0,3.1,0c0.9,0,2.3-0.1,3.8-0.2c0.4-2.3,0.7-4.4,0.6-6.3
		L715.2,808.4z M725.4,811.2c1.8,2.5,4.3,8.2,5.2,11l-3.8,1.8c-0.8-3.3-2.9-8.7-5-11.3L725.4,811.2z"/>
	<path d="M754.9,815.4c-0.9,0.5-1.8,1-2.9,1.6c-1.8,1-4.6,2.2-7.3,4c-2.5,1.6-4.1,3.3-4.1,5.4c0,2.1,2,3.3,6.2,3.3
		c3,0,7-0.5,9.7-1.1l-0.1,4.3c-2.5,0.5-5.7,0.8-9.5,0.8c-5.9,0-10.4-1.6-10.4-6.8c0-3.3,2.1-5.7,4.9-7.8c-1.4-2.5-2.8-5.7-4.1-8.8
		l3.8-1.5c1.1,3.1,2.5,5.9,3.7,8.2c2.2-1.3,4.3-2.3,5.7-3.1c1.1-0.6,2-1.1,2.7-1.8L754.9,815.4z M755.3,808.1c0.8,1.1,1.8,3,2.4,4.1
		l-2.4,1c-0.6-1.2-1.5-3-2.3-4.2L755.3,808.1z M758.9,806.7c0.8,1.1,1.9,3.1,2.4,4.1l-2.4,1c-0.6-1.3-1.6-3-2.4-4.1L758.9,806.7z"/>
	<path d="M779,818.6c-3.3,0-6.2,1-7.7,1.4c-0.9,0.3-2,0.7-2.9,1l-1.1-4.2c1-0.1,2.3-0.3,3.2-0.5c2.2-0.5,5.5-1.3,9-1.3
		c4.7,0,8,2.7,8,7.3c0,6.4-5.9,10.3-14.1,11.5l-2.2-3.7c7.4-0.8,12.1-3.2,12.1-7.9C783.3,820.2,781.8,818.6,779,818.6z M785,809.2
		l-0.6,3.7c-3.5-0.2-9.9-0.8-13.3-1.4l0.6-3.6C775.1,808.6,781.8,809.2,785,809.2z"/>
	<path d="M811,815.2c-1.8,0.4-3.8,0.8-5.8,1c-0.3,1.3-0.6,2.6-0.9,3.8c-1.1,4.2-3.1,10.2-4.7,13.7l-4.2-1.4c1.8-3,4-9.2,5.1-13.4
		c0.2-0.8,0.5-1.6,0.6-2.5c-0.7,0-1.3,0.1-1.9,0.1c-1.4,0-2.6-0.1-3.6-0.1l-0.1-3.7c1.5,0.2,2.5,0.2,3.8,0.2c0.9,0,1.7,0,2.6-0.1
		c0.1-0.6,0.2-1.2,0.3-1.7c0.1-1.1,0.2-2.3,0.1-3l4.5,0.4c-0.2,0.8-0.5,2.2-0.6,2.8l-0.2,1.1c1.7-0.2,3.4-0.6,5-1V815.2z
		 M810.4,824.9c-0.2,0.9-0.4,1.8-0.4,2.5c0,1.3,0.8,2.3,3.9,2.3c2,0,4-0.2,6.2-0.6l-0.1,3.8c-1.7,0.2-3.7,0.4-6.1,0.4
		c-5,0-7.6-1.7-7.6-4.7c0-1.4,0.3-2.8,0.5-4L810.4,824.9z M808.7,817.5c1.6-0.2,3.8-0.3,5.7-0.3c1.7,0,3.5,0.1,5.2,0.2l-0.1,3.6
		c-1.5-0.2-3.3-0.4-5.1-0.4c-2.1,0-3.9,0.1-5.7,0.3V817.5z M816.4,814.4c-0.6-1.2-1.5-3-2.3-4.2l2.4-1c0.8,1.1,1.8,3,2.4,4.1
		L816.4,814.4z M820,807.9c0.8,1.1,1.9,3,2.4,4.1l-2.4,1c-0.6-1.3-1.6-3-2.4-4.1L820,807.9z"/>
	<path d="M833.5,809.6c1.6,0,7.5-0.1,9.4-0.2c0.7-0.1,1.6-0.2,2.1-0.3l2,2.6c-0.6,0.3-1.2,0.7-1.7,1c-1.7,1.2-4.6,3.3-6.8,5.2
		c1-0.3,2.2-0.4,3-0.4c5.2,0,8.8,3,8.8,7.2c0,5.8-4.8,9.7-15.6,8.8l-1.1-3.9c8,1,12.6-0.9,12.6-5c0-2.3-2.2-4-5.5-4
		c-5.2,0-8.2,3.3-11.1,6.4l-2.8-2.9c3.6-3.3,10.7-9.3,13.1-11.4c-1.6,0-4.9,0.3-6.4,0.3c-0.8,0.1-1.7,0.2-2.3,0.3l-0.2-3.9
		C831.7,809.5,832.5,809.6,833.5,809.6z"/>
	<path d="M871.2,818.6c-3.3,0-6.2,1-7.7,1.4c-0.9,0.3-2,0.7-2.9,1l-1.1-4.2c1-0.1,2.3-0.3,3.2-0.5c2.2-0.5,5.5-1.3,9-1.3
		c4.7,0,8,2.7,8,7.3c0,6.4-5.9,10.3-14.1,11.5l-2.2-3.7c7.4-0.8,12.1-3.2,12.1-7.9C875.5,820.2,874,818.6,871.2,818.6z M877.2,809.2
		l-0.6,3.7c-3.5-0.2-9.9-0.8-13.3-1.4l0.6-3.6C867.3,808.6,874.1,809.2,877.2,809.2z"/>
</g>
<g>
	<path d="M1058.5,608v288h-838V608H1058.5 M1064.5,602h-850v300h850V602L1064.5,602z"/>
</g>
<g>
	<path d="M1008.4,1227.8c-1.2-1.5-1.8-2.4-2.2-3.1c-1-1.6-1.3-2.4-1.3-3.7c0-2.1,1.6-3.2,3.1-3.2c1.4,0,2.4,0.7,3,1.9
		c0.1,0.2,0.1,0.4,0.3,0.4s0.2-0.1,0.3-0.4c0.6-1.2,1.6-1.9,3-1.9c1.5,0,3.1,1.1,3.1,3.2c0,1.3-0.3,2.2-1.3,3.7
		c-0.4,0.7-1.1,1.6-2.2,3.1c-0.8,1-1.8,2.2-2.9,3.4C1010.2,1230,1009.2,1228.8,1008.4,1227.8z"/>
	<path d="M1032.2,1227.8c-1.2-1.5-1.8-2.4-2.2-3.1c-1-1.6-1.3-2.4-1.3-3.7c0-2.1,1.6-3.2,3.1-3.2c1.4,0,2.4,0.7,3,1.9
		c0.1,0.2,0.1,0.4,0.3,0.4s0.2-0.1,0.3-0.4c0.6-1.2,1.6-1.9,3-1.9c1.5,0,3.1,1.1,3.1,3.2c0,1.3-0.3,2.2-1.3,3.7
		c-0.4,0.7-1.1,1.6-2.2,3.1c-0.8,1-1.8,2.2-2.9,3.4C1034,1230,1032.9,1228.8,1032.2,1227.8z"/>
</g>
<g>
	<path d="M242.8,1208.8l4-3.3c1.5-1.2,2-2.2,2-3.2c0-1.2-1-1.9-2.1-1.9c-1.2,0-2.1,0.6-2.8,1.6l-1.1-1c1-1.3,2.3-2.1,4-2.1
		c2,0,3.7,1.3,3.7,3.3c0,1.5-0.7,2.6-2.6,4.2l-2.6,2.2h5.3v1.5h-7.8V1208.8z"/>
	<path d="M252.9,1204.6c0-3.3,1.9-5.7,4.7-5.7c2.7,0,4.7,2.4,4.7,5.7c0,3.3-2,5.7-4.7,5.7C254.8,1210.3,252.9,1208,252.9,1204.6z
		 M260.6,1204.6c0-2.5-1.2-4.2-3-4.2c-1.8,0-3.1,1.7-3.1,4.2c0,2.5,1.3,4.2,3.1,4.2C259.3,1208.8,260.6,1207.1,260.6,1204.6z"/>
	<path d="M266.4,1201l-1.9,1.2l-0.7-1.2l2.9-2h1.3v11h-1.6V1201z"/>
	<path d="M276.6,1200.6h-5.8v-1.5h7.7v1.2l-4.6,9.8H272L276.6,1200.6z"/>
	<path d="M281,1209.2c0-0.5,0.5-1,1.1-1c0.6,0,1,0.5,1,1c0,0.6-0.5,1.1-1,1.1C281.5,1210.3,281,1209.8,281,1209.2z"/>
	<path d="M285.3,1208.6l1-1.2c0.8,0.9,1.9,1.5,3,1.5c1.4,0,2.4-1,2.4-2.2c0-1.3-1-2.1-2.4-2.1c-0.9,0-1.7,0.3-2.4,0.8l-1.1-0.5
		l0.2-5.7h6.8v1.5h-5.2l-0.1,3.3c0.6-0.4,1.3-0.7,2.3-0.7c2,0,3.6,1.2,3.6,3.4c0,2.2-1.7,3.7-4.1,3.7
		C287.6,1210.3,286.3,1209.6,285.3,1208.6z"/>
	<path d="M295.7,1209.2c0-0.5,0.5-1,1.1-1c0.6,0,1,0.5,1,1c0,0.6-0.5,1.1-1,1.1C296.2,1210.3,295.7,1209.8,295.7,1209.2z"/>
	<path d="M302.2,1201l-1.9,1.2l-0.7-1.2l2.9-2h1.3v11h-1.6V1201z"/>
	<path d="M311.9,1207.6h-5.5l-0.2-1.3l5.3-7.2h1.9v7h1.6v1.4h-1.6v2.5h-1.6V1207.6z M311.9,1206.2v-5.2l-3.9,5.2H311.9z"/>
	<path d="M247.7,1224.9c0,1.3-1,2.3-2.4,2.3c-1.9,0-2.6-1.5-2.6-3.4c0-2,1.2-3.7,2.8-3.7c0.8,0,1.4,0.3,1.9,0.8l-0.4,0.6
		c-0.4-0.4-0.9-0.7-1.5-0.7c-1.1,0-2,1.3-2,2.9v0.1c0.4-0.7,1.1-1,1.9-1C246.6,1222.8,247.7,1223.6,247.7,1224.9z M246.9,1225
		c0-0.9-0.7-1.5-1.6-1.5c-0.9,0-1.5,0.5-1.7,1.3c0.2,1,0.8,1.8,1.7,1.8C246.3,1226.5,246.9,1225.7,246.9,1225z"/>
	<path d="M254.2,1224.9c0,1.3-1,2.3-2.4,2.3c-1.9,0-2.6-1.5-2.6-3.4c0-2,1.2-3.7,2.8-3.7c0.8,0,1.4,0.3,1.9,0.8l-0.4,0.6
		c-0.4-0.4-0.9-0.7-1.5-0.7c-1.1,0-2,1.3-2,2.9v0.1c0.4-0.7,1.1-1,1.9-1C253.1,1222.8,254.2,1223.6,254.2,1224.9z M253.4,1225
		c0-0.9-0.7-1.5-1.6-1.5c-0.9,0-1.5,0.5-1.7,1.3c0.2,1,0.8,1.8,1.7,1.8C252.8,1226.5,253.4,1225.7,253.4,1225z"/>
	<path d="M263.3,1223.8v3.3h-0.7v-3.2c0-0.8-0.5-1.4-1.3-1.4c-0.9,0-1.6,0.6-1.6,1.3v3.3h-0.7v-5.2h0.7v0.8c0.3-0.5,1-0.9,1.7-0.9
		C262.5,1221.8,263.3,1222.6,263.3,1223.8z"/>
	<path d="M264.8,1224.5c0-1.5,1.2-2.7,2.7-2.7s2.7,1.2,2.7,2.7c0,1.5-1.2,2.7-2.7,2.7S264.8,1225.9,264.8,1224.5z M269.4,1224.5
		c0-1.1-0.9-2-1.9-2c-1,0-1.9,0.9-1.9,2c0,1.1,0.9,2,1.9,2C268.5,1226.5,269.4,1225.6,269.4,1224.5z"/>
	<path d="M274.3,1226.9c-0.3,0.2-0.6,0.3-1,0.3c-0.7,0-1.3-0.5-1.3-1.3v-3.3h-0.8v-0.7h0.8v-1.4h0.7v1.4h1.3v0.7h-1.3v3.3
		c0,0.4,0.3,0.6,0.6,0.6c0.2,0,0.4-0.1,0.5-0.2L274.3,1226.9z"/>
	<path d="M279.6,1225.9l0.5,0.5c-0.4,0.5-1.4,0.8-2.1,0.8c-1.4,0-2.6-1.1-2.6-2.7c0-1.5,1.2-2.7,2.5-2.7c1.6,0,2.4,1.2,2.4,3h-4.2
		c0.1,1,0.8,1.7,1.8,1.7C278.5,1226.5,279.2,1226.2,279.6,1225.9z M276.1,1224.1h3.5c-0.1-0.9-0.6-1.6-1.7-1.6
		C277,1222.4,276.2,1223.1,276.1,1224.1z"/>
	<path d="M281.5,1226.4l0.4-0.5c0.6,0.4,1.2,0.6,1.7,0.6c0.7,0,1.1-0.3,1.1-0.8c0-0.6-0.6-0.7-1.3-0.9c-1.2-0.4-1.7-0.7-1.7-1.5
		c0-0.9,0.8-1.5,1.8-1.5c0.6,0,1.3,0.2,1.8,0.6l-0.4,0.6c-0.5-0.3-1-0.5-1.5-0.5c-0.6,0-1.1,0.3-1.1,0.8c0,0.4,0.4,0.6,1.3,0.9
		c0.8,0.3,1.7,0.5,1.7,1.5c0,1-0.8,1.6-1.9,1.6C282.9,1227.2,282.1,1226.9,281.5,1226.4z"/>
</g>
<g>
	<path d="M249.3,1166.2c-2.5,0.5-5,0.9-7.1,1.2l-0.5-2.9c2-0.2,4.7-0.6,7.6-1v-1.9h-6.9v-2.8h6.9v-2.2h3.6v11.6h-3.6V1166.2z
		 M264.9,1181c0,1.7-0.4,2.6-1.7,3.1c-1.2,0.5-3,0.5-5.4,0.5c-0.2-0.9-0.7-2.2-1.1-3.1c1.4,0.1,3.4,0.1,3.8,0.1
		c0.5,0,0.7-0.1,0.7-0.6v-1.4H249v5h-3.6v-15.7h19.5V1181z M249,1171.5v1.6h12.2v-1.6H249z M261.2,1177.2v-1.7H249v1.7H261.2z
		 M264.3,1165c0.9,0,1.1-0.4,1.2-2.3c0.7,0.5,2.2,1,3.1,1.2c-0.4,3.1-1.3,4.1-4,4.1h-4.2c-3.6,0-4.4-1-4.4-4.1v-7.3h3.6v3.1
		c2.1-0.6,4.3-1.3,5.8-2l2.3,2.5c-2.4,0.9-5.4,1.6-8.1,2.2v1.4c0,0.9,0.2,1.1,1.3,1.1H264.3z"/>
	<path d="M282.2,1179.7c-2,1.7-5.2,3.5-7.8,4.5c-0.6-0.7-1.9-1.9-2.6-2.5c2.6-0.8,5.5-2,7.1-3.3L282.2,1179.7z M298.9,1170.5h-26.5
		v-2.8H284v-1.2h-8.2v-9h20v9h-8.2v1.2h11.4V1170.5z M287.6,1178.4v3.2c0,1.5-0.3,2.2-1.5,2.6c-1.2,0.4-2.7,0.4-4.8,0.4
		c-0.2-0.9-0.6-2-1-2.7c1.2,0.1,2.9,0.1,3.2,0c0.4,0,0.6-0.1,0.6-0.4v-3.1h-7.6v-6.9h18.8v6.9H287.6z M279.2,1161h13v-1.3h-13V1161z
		 M279.2,1164.3h13v-1.3h-13V1164.3z M279.9,1175.9h11.8v-1.9h-11.8V1175.9z M291.4,1178.5c2.4,0.9,5.8,2.5,7.6,3.7l-2.6,2.1
		c-1.6-1.1-4.9-2.8-7.4-3.9L291.4,1178.5z"/>
	<path d="M309.3,1159.3c-0.2,0.6-0.6,2.1-0.7,2.6c-0.5,2-1.4,8.5-1.4,11.5c0,0.6,0,1.4,0.1,2c0.4-1,0.9-2.1,1.3-3.1l1.9,1.5
		c-0.8,2.4-1.8,5.5-2.1,7.1c-0.1,0.4-0.2,1-0.2,1.4c0,0.3,0,0.8,0.1,1.2l-3.4,0.2c-0.6-2.1-1.2-5.5-1.2-9.5c0-4.5,0.8-10.1,1.2-12.4
		c0.1-0.8,0.3-2,0.3-2.9L309.3,1159.3z M328.1,1170.2c-1.5,0.2-3.1,0.3-5,0.4c0,1.6,0.1,3.1,0.2,4.5c2.9,1,4.9,2.7,6.1,3.7l-1.9,3.2
		c-1.2-1.2-2.6-2.4-4-3.2v0.3c0,2.6-1.7,4.4-5.5,4.4c-3.4,0-6.2-1.5-6.2-4.7c0-2.6,2.1-4.7,6.1-4.7c0.7,0,1.3,0,2,0.1
		c-0.1-1.1-0.1-2.3-0.2-3.5c-2.2,0-4.4,0-6.7-0.1l0-3.5c2.3,0.2,4.6,0.2,6.7,0.2v-3.7c-1.9,0-4,0-6.3-0.1v-3.3
		c4.8,0.4,8.6,0.2,11.8-0.1c-0.2-0.6-0.5-1.3-0.8-1.8l2-0.6c0.6,1.2,1.3,2.9,1.6,4.1l-1.7,0.6v0.9c-1,0.1-2.1,0.2-3.2,0.3v3.7
		c1.8-0.1,3.5-0.3,5-0.5V1170.2z M319.9,1177.2c-0.8-0.2-1.5-0.3-2.2-0.3c-1.7,0-2.6,0.7-2.6,1.6c0,1.1,0.9,1.7,2.4,1.7
		c1.8,0,2.4-0.9,2.4-2.3V1177.2z M329.1,1161.5c-0.4-1.3-1-2.9-1.6-4.1l2-0.7c0.6,1.2,1.3,2.9,1.6,4.1L329.1,1161.5z"/>
	<path d="M340.8,1158.8c-0.2,0.7-0.6,1.8-0.7,2.4c-0.7,3.3-1.8,9.5-1,13.2c0.4-0.9,0.9-2.3,1.4-3.4l1.9,1.2c-0.9,2.6-1.6,5.6-2,7.3
		c-0.1,0.5-0.2,1.1-0.2,1.4c0,0.3,0.1,0.8,0.1,1.2l-3.3,0.3c-0.6-1.8-1.7-5.9-1.7-9.6c0-4.9,0.6-9.5,1-11.8c0.1-0.8,0.2-1.8,0.2-2.6
		L340.8,1158.8z M359.8,1167.4c-1.2,0.2-2.7,0.3-4.4,0.4v1.2c0,7-0.5,11.3-6.4,15.1l-3.4-2.7c1.1-0.5,2.6-1.4,3.5-2.4
		c2.3-2.4,2.8-5,2.8-10v-1.1c-1.1,0-2.2,0.1-3.3,0.1c-1.3,0-3.1-0.1-4.6-0.2v-3.8c1.5,0.2,2.9,0.3,4.5,0.3c1.1,0,2.2,0,3.4-0.1
		c0-1.6-0.1-3.2-0.1-4c-0.1-0.6-0.2-1.5-0.3-2h4.4c-0.1,0.7-0.1,1.3-0.2,2c0,0.7,0,2.2,0,3.8c1.7-0.1,3.2-0.3,4.5-0.5L359.8,1167.4z
		"/>
	<path d="M368.3,1161.3c2.5-0.2,7.4-0.7,12.8-1.1c3.1-0.2,6.3-0.4,8.4-0.5l0,3.8c-1.6,0-4.1,0-5.7,0.4c-3.6,1-6.3,4.8-6.3,8.3
		c0,4.9,4.6,6.6,9.6,6.9l-1.4,4.1c-6.2-0.4-12.1-3.8-12.1-10.2c0-4.3,2.4-7.7,4.4-9.2c-2.5,0.3-8.8,0.9-12.3,1.7l-0.4-4.1
		C366.5,1161.4,367.7,1161.4,368.3,1161.3z"/>
	<path d="M417,1161.4c-0.7,0.5-1.4,0.9-2.1,1.3c-1.6,1.1-4.7,3.8-6.6,5.2c1-0.3,1.8-0.3,2.8-0.3c5,0,8.9,3.2,8.9,7.5
		c0,4.7-3.6,8.4-10.7,8.4c-4.1,0-7.3-1.9-7.3-4.9c0-2.4,2.2-4.6,5.3-4.6c3.7,0,5.9,2.2,6.3,5.1c1.6-0.9,2.4-2.2,2.4-4
		c0-2.7-2.7-4.5-6.1-4.5c-4.6,0-7.5,2.4-10.7,6l-2.7-2.8c2.1-1.7,5.7-4.7,7.4-6.2c1.6-1.4,4.7-3.9,6.2-5.2c-1.5,0-5.6,0.2-7.2,0.3
		c-0.8,0-1.7,0.1-2.4,0.2l-0.1-3.9c0.8,0.1,1.9,0.2,2.7,0.2c1.6,0,7.9-0.2,9.6-0.3c1.2-0.1,1.9-0.2,2.3-0.3L417,1161.4z
		 M410.3,1180.1c-0.2-1.9-1.3-3.2-2.9-3.2c-1.1,0-1.8,0.7-1.8,1.4c0,1.1,1.3,1.9,3,1.9C409.2,1180.2,409.7,1180.2,410.3,1180.1z"/>
	<path d="M448.9,1164.6c-0.9,0.5-1.9,1-2.9,1.6c-1.9,0.9-5.6,2.7-8.3,4.4c-2.5,1.6-4.1,3.3-4.1,5.4c0,2.1,2.1,3.3,6.2,3.3
		c3.1,0,7.1-0.5,9.7-1.1l-0.1,4.3c-2.5,0.4-5.7,0.7-9.5,0.7c-5.9,0-10.4-1.6-10.4-6.7c0-3.3,2.1-5.7,4.9-7.8
		c-1.4-2.5-2.8-5.7-4.2-8.8l3.7-1.5c1.1,3.1,2.5,5.9,3.7,8.2c2.4-1.4,5-2.7,6.4-3.5c1.1-0.7,2-1.2,2.7-1.8L448.9,1164.6z"/>
	<path d="M469.2,1158.4c-0.2,0.8-0.4,1.7-0.5,2.5c-0.1,0.9-0.4,2-0.6,3.1c1-0.1,1.9-0.1,2.5-0.1c3.1,0,5.4,1.4,5.4,5.7
		c0,3.5-0.4,8.2-1.7,10.8c-1,2.1-2.6,2.7-4.9,2.7c-1.1,0-2.5-0.2-3.5-0.4l-0.7-3.9c1.1,0.3,2.9,0.6,3.6,0.6c1,0,1.8-0.3,2.2-1.3
		c0.8-1.6,1.2-5.2,1.2-8.1c0-2.4-1-2.7-2.9-2.7c-0.5,0-1.2,0.1-2,0.1c-1.1,4.5-3.3,11.5-6,15.9l-3.9-1.6c2.9-3.9,4.9-9.8,6-13.9
		c-1,0.1-2,0.2-2.5,0.3c-0.8,0.1-2.4,0.3-3.3,0.5l-0.3-4c1.1,0.1,2.1,0,3.1,0c0.9,0,2.3-0.1,3.8-0.2c0.4-2.3,0.7-4.4,0.6-6.3
		L469.2,1158.4z M479.4,1161.2c1.8,2.5,4.3,8.2,5.2,11l-3.7,1.8c-0.8-3.3-2.9-8.7-5-11.3L479.4,1161.2z"/>
	<path d="M496.3,1159.3c1.3,0,6.8-0.3,8.6-0.5c1-0.1,1.6-0.2,2.1-0.4l2.3,2.7c-0.6,0.4-1.7,1.1-2.3,1.6c-2.1,1.7-5.1,4.1-7.1,5.7
		c4-0.4,8.9-0.7,12.5-0.7v3.5c-2.8-0.2-5.8-0.2-7.6,0.1c-2.7,0.4-5,2.3-5,4.7c0,2.3,1.8,3.2,4.5,3.6c1.6,0.2,3.4,0.2,4.5,0.1
		l-0.8,3.9c-7.6,0.3-12.1-2-12.1-6.9c0-1.8,1.1-3.7,2.2-4.7c-2.7,0.2-6,0.7-9,1.2l-0.4-3.6c1.6-0.1,3.7-0.4,5.2-0.6
		c2.7-1.7,6.5-5.1,8.4-6.8c-1.2,0.1-4.9,0.3-6.1,0.4c-0.8,0.1-1.7,0.2-2.7,0.3l-0.2-3.8C494.4,1159.2,495.3,1159.3,496.3,1159.3z"/>
	<path d="M533,1168.6c-3.3,0-6.2,1-7.7,1.4c-0.9,0.3-2,0.7-2.9,1l-1.1-4.2c1-0.1,2.3-0.3,3.2-0.5c2.2-0.5,5.5-1.3,9-1.3
		c4.7,0,8,2.7,8,7.3c0,6.4-5.9,10.3-14.1,11.5l-2.2-3.7c7.4-0.8,12.1-3.2,12.1-7.9C537.3,1170.2,535.8,1168.6,533,1168.6z
		 M539,1159.2l-0.6,3.7c-3.5-0.2-9.9-0.8-13.3-1.4l0.6-3.6C529.1,1158.6,535.8,1159.2,539,1159.2z"/>
	<path d="M555.1,1164.3c0,1.9,0,4.2,0.2,6.3c0.4,4.3,1.3,7.2,3.2,7.2c1.4,0,2.6-3.5,3.1-5.8l3,3.6c-2,5.2-3.8,7-6.2,7
		c-3.2,0-6.1-2.9-6.9-10.9c-0.3-2.7-0.3-6.2-0.3-8c0-0.8,0-2.1-0.2-3l4.6,0.1C555.2,1161.7,555.1,1163.5,555.1,1164.3z
		 M575.7,1176.5l-3.9,1.5c-0.5-4.8-2-11.8-5.3-15.4l3.8-1.3C573.1,1164.7,575.4,1171.9,575.7,1176.5z"/>
	<path d="M594.5,1168.6c-3.3,0-6.2,1-7.7,1.4c-0.9,0.3-2,0.7-2.9,1l-1.1-4.2c1-0.1,2.3-0.3,3.2-0.5c2.2-0.5,5.5-1.3,9-1.3
		c4.7,0,8,2.7,8,7.3c0,6.4-5.9,10.3-14.1,11.5l-2.2-3.7c7.4-0.8,12.1-3.2,12.1-7.9C598.8,1170.2,597.3,1168.6,594.5,1168.6z
		 M600.5,1159.2l-0.6,3.7c-3.5-0.2-9.9-0.8-13.3-1.4l0.6-3.6C590.6,1158.6,597.3,1159.2,600.5,1159.2z"/>
	<path d="M623.2,1179.7c1.1-0.1,2-0.3,2.8-0.5c3.8-0.9,6.8-3.6,6.8-8c0-4.1-2.2-7.2-6.2-7.9c-0.4,2.5-0.9,5.3-1.8,8.1
		c-1.8,6-4.3,9.7-7.6,9.7c-3.3,0-6.1-3.6-6.1-8.6c0-6.8,6-12.7,13.7-12.7c7.3,0,12,5.1,12,11.6c0,6.2-3.8,10.7-11.3,11.8
		L623.2,1179.7z M620.9,1170.7c0.7-2.2,1.2-4.7,1.6-7.2c-4.9,1-7.5,5.3-7.5,8.6c0,3,1.2,4.5,2.3,4.5
		C618.5,1176.6,619.7,1174.8,620.9,1170.7z"/>
	<path d="M663.6,1168.9c2,2.5,2.9,4.6,2.9,7.1c0,4.5-4,7.7-10.5,7.7c-4.7,0-8-2-8-7c0-0.7,0.1-1.8,0.2-3c-2.2-0.2-4.1-0.5-5.7-1
		l0.2-3.6c1.9,0.7,3.9,1,5.8,1.2c0.2-1.3,0.3-2.7,0.5-4c-2.1-0.2-4.2-0.6-5.9-1l0.2-3.5c1.7,0.6,3.9,0.9,6.1,1.1
		c0.1-0.9,0.2-1.7,0.2-2.4c0.1-0.8,0.1-1.7,0.1-2.6l4.2,0.2c-0.2,1.1-0.4,1.9-0.5,2.6c-0.1,0.5-0.2,1.3-0.3,2.2c2.1,0,4-0.2,5.5-0.4
		l-0.1,3.5c-1.8,0.2-3.4,0.3-5.8,0.3c-0.2,1.3-0.4,2.7-0.5,4h0.2c1.8,0,4-0.1,6-0.4l-0.1,3.5c-1.7,0.2-3.4,0.3-5.2,0.3
		c-0.4,0-0.8,0-1.2,0c-0.1,0.9-0.1,1.6-0.1,2.2c0,2.4,1.5,3.8,4.4,3.8c4.1,0,6.4-1.9,6.4-4.3c0-2-1.1-3.9-3.1-5.8L663.6,1168.9z"/>
	<path d="M693,1165.6c-0.2,0.3-0.4,1-0.5,1.5c3.5,1.1,5.7,3.8,5.7,7.3c0,4.2-2.5,8.3-9.8,9.4l-2-3.1c5.7-0.6,8.1-3.5,8.1-6.4
		c0-1.8-1-3.4-3.1-4.2c-1.7,4-4,7.1-6.3,9c0.2,0.8,0.5,1.5,0.7,2.2l-3.4,1c-0.1-0.4-0.3-0.8-0.4-1.2c-1.4,0.7-3,1.2-4.6,1.2
		c-2.2,0-4-1.3-4-4.3c0-3.8,3.2-7.8,7.3-9.7c0.1-1.3,0.2-2.5,0.3-3.7h-1c-1.6,0-3.9-0.1-5.2-0.2l-0.1-3.4c1.1,0.1,3.7,0.4,5.5,0.4
		h1.1l0.2-1.6c0.1-0.5,0.1-1.3,0.1-1.8l3.9,0.1c-0.2,0.6-0.3,1.1-0.4,1.6c-0.1,0.5-0.2,1-0.3,1.6c3.6-0.1,6.8-0.5,10.1-1.3l0,3.4
		c-2.9,0.5-6.9,0.9-10.6,1.1c-0.1,0.9-0.2,1.8-0.2,2.7c1.4-0.3,3-0.5,4.4-0.5h0.5c0.1-0.6,0.2-1.3,0.3-1.8L693,1165.6z
		 M681.3,1177.7c-0.3-1.9-0.6-3.9-0.6-5.9c-2.2,1.5-3.7,3.8-3.7,5.5c0,0.9,0.4,1.4,1.4,1.4C679.1,1178.7,680.2,1178.3,681.3,1177.7z
		 M684,1170.3c0,1.8,0.1,3.5,0.3,4.9c1.4-1.4,2.8-3.2,3.8-5.6C686.5,1169.6,685.1,1169.8,684,1170.3L684,1170.3z"/>
	<path d="M712.2,1158c-0.4,1.5-1,4.5-1.2,6.1c1.4-2.3,4-4.8,7.3-4.8c4.1,0,7.3,4,7.3,10.6c0,8.4-5.2,12.4-13,13.9l-2.2-3.5
		c6.6-1,11.2-3.2,11.2-10.4c0-4.6-1.5-7.1-4-7.1c-3.5,0-6.6,5.3-6.7,9.2c0,0.8,0,1.8,0.1,3.1l-3.7,0.2c-0.2-1.1-0.4-3-0.4-5
		c0-2.8,0.4-6.4,0.8-9.5c0.2-1.1,0.2-2.3,0.2-3.1L712.2,1158z"/>
	<path d="M749.5,1165.2c-1.8,0.4-3.8,0.8-5.8,1c-0.3,1.3-0.6,2.6-0.9,3.8c-1.1,4.2-3.1,10.2-4.7,13.7l-4.2-1.4c1.8-3,4-9.2,5.1-13.4
		c0.2-0.8,0.5-1.6,0.6-2.5c-0.7,0-1.3,0.1-1.9,0.1c-1.4,0-2.6-0.1-3.6-0.1l-0.1-3.7c1.5,0.2,2.5,0.2,3.8,0.2c0.9,0,1.7,0,2.6-0.1
		c0.1-0.6,0.2-1.2,0.3-1.7c0.1-1.1,0.2-2.3,0.1-3l4.5,0.4c-0.2,0.8-0.5,2.2-0.6,2.8l-0.2,1.1c1.7-0.2,3.4-0.6,5-1V1165.2z
		 M748.9,1174.9c-0.2,0.9-0.4,1.8-0.4,2.5c0,1.3,0.8,2.3,3.9,2.3c2,0,4-0.2,6.2-0.6l-0.1,3.8c-1.7,0.2-3.7,0.4-6.1,0.4
		c-5,0-7.6-1.7-7.6-4.7c0-1.4,0.3-2.8,0.5-4L748.9,1174.9z M747.2,1167.5c1.6-0.2,3.8-0.3,5.7-0.3c1.7,0,3.5,0.1,5.2,0.2l-0.1,3.6
		c-1.5-0.2-3.3-0.4-5.1-0.4c-2.1,0-3.9,0.1-5.7,0.3V1167.5z M754.9,1164.4c-0.6-1.2-1.5-3-2.3-4.2l2.4-1c0.8,1.1,1.8,3,2.4,4.1
		L754.9,1164.4z M758.5,1157.9c0.8,1.1,1.9,3,2.4,4.1l-2.4,1c-0.6-1.3-1.6-3-2.4-4.1L758.5,1157.9z"/>
	<path d="M772,1159.6c1.6,0,7.5-0.1,9.4-0.2c0.7-0.1,1.6-0.2,2.1-0.3l2,2.6c-0.6,0.3-1.2,0.7-1.7,1c-1.7,1.2-4.6,3.3-6.8,5.2
		c1-0.3,2.2-0.4,3-0.4c5.2,0,8.8,3,8.8,7.2c0,5.8-4.8,9.7-15.6,8.8l-1.1-3.9c8,1,12.6-0.9,12.6-5c0-2.3-2.2-4-5.5-4
		c-5.2,0-8.2,3.3-11.1,6.4l-2.8-2.9c3.6-3.3,10.7-9.3,13.1-11.4c-1.6,0-4.9,0.3-6.4,0.3c-0.8,0.1-1.7,0.2-2.3,0.3l-0.2-3.9
		C770.2,1159.5,771,1159.6,772,1159.6z"/>
	<path d="M809.7,1168.6c-3.3,0-6.2,1-7.7,1.4c-0.9,0.3-2,0.7-2.9,1l-1.1-4.2c1-0.1,2.3-0.3,3.2-0.5c2.2-0.5,5.5-1.3,9-1.3
		c4.7,0,8,2.7,8,7.3c0,6.4-5.9,10.3-14.1,11.5l-2.2-3.7c7.4-0.8,12.1-3.2,12.1-7.9C814,1170.2,812.5,1168.6,809.7,1168.6z
		 M815.7,1159.2l-0.6,3.7c-3.5-0.2-9.9-0.8-13.3-1.4l0.6-3.6C805.8,1158.6,812.6,1159.2,815.7,1159.2z"/>
	<path d="M838.2,1158.4c-0.2,0.8-0.4,1.7-0.5,2.5c-0.1,0.9-0.4,2-0.6,3.1c1-0.1,1.9-0.1,2.5-0.1c3.2,0,5.4,1.4,5.4,5.7
		c0,3.5-0.4,8.2-1.7,10.8c-1,2.1-2.6,2.7-4.9,2.7c-1.1,0-2.5-0.2-3.5-0.4l-0.7-3.9c1.1,0.3,2.8,0.6,3.6,0.6c1,0,1.8-0.3,2.2-1.3
		c0.8-1.6,1.2-5.2,1.2-8.1c0-2.4-1-2.7-2.9-2.7c-0.5,0-1.2,0.1-2,0.1c-1.1,4.5-3.3,11.5-6,15.9l-3.9-1.6c2.9-3.9,4.9-9.8,6-13.9
		c-1,0.1-2,0.2-2.5,0.3c-0.8,0.1-2.4,0.3-3.3,0.5l-0.3-4c1.1,0.1,2.1,0,3.1,0c0.9,0,2.3-0.1,3.8-0.2c0.4-2.3,0.7-4.4,0.6-6.3
		L838.2,1158.4z M848.4,1161.2c1.8,2.5,4.3,8.2,5.2,11l-3.8,1.8c-0.8-3.3-2.9-8.7-5-11.3L848.4,1161.2z"/>
</g>
<g>
	<path d="M1058.5,958v288h-838V958H1058.5 M1064.5,952h-850v300h850V952L1064.5,952z"/>
</g>
<g>
	<path d="M1008.4,530.8c-1.2-1.5-1.8-2.4-2.2-3.1c-1-1.6-1.3-2.4-1.3-3.7c0-2.1,1.6-3.2,3.1-3.2c1.4,0,2.4,0.7,3,1.9
		c0.1,0.2,0.1,0.4,0.3,0.4s0.2-0.1,0.3-0.4c0.6-1.2,1.6-1.9,3-1.9c1.5,0,3.1,1.1,3.1,3.2c0,1.3-0.3,2.2-1.3,3.7
		c-0.4,0.7-1.1,1.6-2.2,3.1c-0.8,1-1.8,2.2-2.9,3.4C1010.2,533,1009.2,531.8,1008.4,530.8z"/>
	<path d="M1032.2,530.8c-1.2-1.5-1.8-2.4-2.2-3.1c-1-1.6-1.3-2.4-1.3-3.7c0-2.1,1.6-3.2,3.1-3.2c1.4,0,2.4,0.7,3,1.9
		c0.1,0.2,0.1,0.4,0.3,0.4s0.2-0.1,0.3-0.4c0.6-1.2,1.6-1.9,3-1.9c1.5,0,3.1,1.1,3.1,3.2c0,1.3-0.3,2.2-1.3,3.7
		c-0.4,0.7-1.1,1.6-2.2,3.1c-0.8,1-1.8,2.2-2.9,3.4C1034,533,1032.9,531.8,1032.2,530.8z"/>
</g>
<g>
	<path d="M242.8,511.8l4-3.3c1.5-1.2,2-2.2,2-3.2c0-1.2-1-1.9-2.1-1.9c-1.2,0-2.1,0.6-2.8,1.6l-1.1-1c1-1.3,2.3-2.1,4-2.1
		c2,0,3.7,1.3,3.7,3.3c0,1.5-0.7,2.6-2.6,4.2l-2.6,2.2h5.3v1.5h-7.8V511.8z"/>
	<path d="M252.9,507.6c0-3.3,1.9-5.7,4.7-5.7c2.7,0,4.7,2.4,4.7,5.7c0,3.3-2,5.7-4.7,5.7C254.8,513.3,252.9,511,252.9,507.6z
		 M260.6,507.6c0-2.5-1.2-4.2-3-4.2c-1.8,0-3.1,1.7-3.1,4.2c0,2.5,1.3,4.2,3.1,4.2C259.3,511.8,260.6,510.1,260.6,507.6z"/>
	<path d="M266.4,504l-1.9,1.2l-0.7-1.2l2.9-2h1.3v11h-1.6V504z"/>
	<path d="M276.6,503.6h-5.8v-1.5h7.7v1.2l-4.6,9.8H272L276.6,503.6z"/>
	<path d="M281,512.2c0-0.5,0.5-1,1.1-1c0.6,0,1,0.5,1,1c0,0.6-0.5,1.1-1,1.1C281.5,513.3,281,512.8,281,512.2z"/>
	<path d="M285.3,511.6l1-1.2c0.8,0.9,1.9,1.5,3,1.5c1.4,0,2.4-1,2.4-2.2c0-1.3-1-2.1-2.4-2.1c-0.9,0-1.7,0.3-2.4,0.8l-1.1-0.5
		l0.2-5.7h6.8v1.5h-5.2l-0.1,3.3c0.6-0.4,1.3-0.7,2.3-0.7c2,0,3.6,1.2,3.6,3.4c0,2.2-1.7,3.7-4.1,3.7
		C287.6,513.3,286.3,512.6,285.3,511.6z"/>
	<path d="M295.7,512.2c0-0.5,0.5-1,1.1-1c0.6,0,1,0.5,1,1c0,0.6-0.5,1.1-1,1.1C296.2,513.3,295.7,512.8,295.7,512.2z"/>
	<path d="M302.2,504l-1.9,1.2l-0.7-1.2l2.9-2h1.3v11h-1.6V504z"/>
	<path d="M311.9,510.6h-5.5l-0.2-1.3l5.3-7.2h1.9v7h1.6v1.4h-1.6v2.5h-1.6V510.6z M311.9,509.2V504l-3.9,5.2H311.9z"/>
	<path d="M247.7,527.9c0,1.3-1,2.3-2.4,2.3c-1.9,0-2.6-1.5-2.6-3.4c0-2,1.2-3.7,2.8-3.7c0.8,0,1.4,0.3,1.9,0.8l-0.4,0.6
		c-0.4-0.4-0.9-0.7-1.5-0.7c-1.1,0-2,1.3-2,2.9v0.1c0.4-0.7,1.1-1,1.9-1C246.6,525.8,247.7,526.6,247.7,527.9z M246.9,528
		c0-0.9-0.7-1.5-1.6-1.5c-0.9,0-1.5,0.5-1.7,1.3c0.2,1,0.8,1.8,1.7,1.8C246.3,529.5,246.9,528.7,246.9,528z"/>
	<path d="M254.2,527.9c0,1.3-1,2.3-2.4,2.3c-1.9,0-2.6-1.5-2.6-3.4c0-2,1.2-3.7,2.8-3.7c0.8,0,1.4,0.3,1.9,0.8l-0.4,0.6
		c-0.4-0.4-0.9-0.7-1.5-0.7c-1.1,0-2,1.3-2,2.9v0.1c0.4-0.7,1.1-1,1.9-1C253.1,525.8,254.2,526.6,254.2,527.9z M253.4,528
		c0-0.9-0.7-1.5-1.6-1.5c-0.9,0-1.5,0.5-1.7,1.3c0.2,1,0.8,1.8,1.7,1.8C252.8,529.5,253.4,528.7,253.4,528z"/>
	<path d="M263.3,526.8v3.3h-0.7v-3.2c0-0.8-0.5-1.4-1.3-1.4c-0.9,0-1.6,0.6-1.6,1.3v3.3h-0.7v-5.2h0.7v0.8c0.3-0.5,1-0.9,1.7-0.9
		C262.5,524.8,263.3,525.6,263.3,526.8z"/>
	<path d="M264.8,527.5c0-1.5,1.2-2.7,2.7-2.7s2.7,1.2,2.7,2.7c0,1.5-1.2,2.7-2.7,2.7S264.8,528.9,264.8,527.5z M269.4,527.5
		c0-1.1-0.9-2-1.9-2c-1,0-1.9,0.9-1.9,2c0,1.1,0.9,2,1.9,2C268.5,529.5,269.4,528.6,269.4,527.5z"/>
	<path d="M274.3,529.9c-0.3,0.2-0.6,0.3-1,0.3c-0.7,0-1.3-0.5-1.3-1.3v-3.3h-0.8v-0.7h0.8v-1.4h0.7v1.4h1.3v0.7h-1.3v3.3
		c0,0.4,0.3,0.6,0.6,0.6c0.2,0,0.4-0.1,0.5-0.2L274.3,529.9z"/>
	<path d="M279.6,528.9l0.5,0.5c-0.4,0.5-1.4,0.8-2.1,0.8c-1.4,0-2.6-1.1-2.6-2.7c0-1.5,1.2-2.7,2.5-2.7c1.6,0,2.4,1.2,2.4,3h-4.2
		c0.1,1,0.8,1.7,1.8,1.7C278.5,529.5,279.2,529.2,279.6,528.9z M276.1,527.1h3.5c-0.1-0.9-0.6-1.6-1.7-1.6
		C277,525.4,276.2,526.1,276.1,527.1z"/>
	<path d="M281.5,529.4l0.4-0.5c0.6,0.4,1.2,0.6,1.7,0.6c0.7,0,1.1-0.3,1.1-0.8c0-0.6-0.6-0.7-1.3-0.9c-1.2-0.4-1.7-0.7-1.7-1.5
		c0-0.9,0.8-1.5,1.8-1.5c0.6,0,1.3,0.2,1.8,0.6l-0.4,0.6c-0.5-0.3-1-0.5-1.5-0.5c-0.6,0-1.1,0.3-1.1,0.8c0,0.4,0.4,0.6,1.3,0.9
		c0.8,0.3,1.7,0.5,1.7,1.5c0,1-0.8,1.6-1.9,1.6C282.9,530.2,282.1,529.9,281.5,529.4z"/>
</g>
<g>
	<path d="M250.3,462c-0.1,0.7-0.1,1.3-0.1,2.3v10.1c0,0.8,0,1.9,0.1,2.6h-4.4c0-0.6,0.1-1.7,0.1-2.6v-10.1c0-0.6,0-1.6-0.1-2.3
		H250.3z M264.1,461.7c-0.1,0.8-0.1,1.8-0.1,3v5.9c0,6.5-1.3,9.2-3.5,11.7c-2,2.2-5.1,3.7-7.3,4.3l-3.1-3.3c3-0.7,5.5-1.8,7.3-3.8
		c2-2.2,2.4-4.5,2.4-9.2v-5.7c0-1.2-0.1-2.2-0.2-3H264.1z"/>
	<path d="M273.4,479.3c1.2,0.1,2.6,0.2,3.7,0.2h17.2c1,0,2.3-0.1,3.3-0.2v4.6c-1.1-0.1-2.4-0.2-3.3-0.2h-17.2
		c-1.2,0-2.6,0.1-3.7,0.2V479.3z M275.9,464.7c1.1,0.1,2.5,0.2,3.5,0.2h12.4c1.2,0,2.5-0.1,3.3-0.2v4.3c-0.9,0-2.3-0.1-3.3-0.1
		h-12.4c-1.1,0-2.5,0.1-3.5,0.1V464.7z"/>
	<path d="M324.5,481.8c0.8,0,2.2,0,2.9-0.1v3.9c-0.6,0-2.1-0.1-2.8-0.1h-15.8c-1.1,0-1.8,0-3,0.1v-3.9c0.8,0.1,1.9,0.2,3,0.2h9.7
		c0.4-2.5,1.1-6.8,1.2-8.5h-8.1c-1,0-2.1,0.1-3,0.2v-4c0.8,0.1,2.2,0.2,3,0.2h7.7c0.6,0,1.9-0.1,2.2-0.3l2.9,1.4
		c-0.1,0.4-0.2,1-0.3,1.3c-0.2,1.8-1,6.9-1.5,9.8H324.5z"/>
	<path d="M335.1,471.1c1.1,0.1,3.3,0.2,4.8,0.2H356c1.4,0,2.7-0.1,3.5-0.2v4.7c-0.7,0-2.2-0.2-3.5-0.2h-16.1c-1.7,0-3.7,0.1-4.8,0.2
		V471.1z"/>
	<path d="M391.7,464.7c-0.3,0.4-0.9,1.1-1.2,1.6c-1.4,2.3-4.3,6.1-7.2,8.2l-3.1-2.5c2.4-1.5,4.7-4.1,5.5-5.6h-15.6
		c-1.3,0-2.2,0.1-3.7,0.2v-4.2c1.1,0.2,2.4,0.3,3.7,0.3h16.2c0.8,0,2.5-0.1,3-0.3L391.7,464.7z M379.5,468.8
		c0,7.4-0.1,13.6-8.3,17.9l-3.5-2.8c1-0.3,2-0.8,3.1-1.7c3.8-2.6,4.5-5.8,4.5-10.7c0-0.9-0.1-1.7-0.2-2.7H379.5z"/>
	<path d="M395,483.9c2.6-1.9,4.3-4.6,5.1-7.2c0.8-2.6,0.9-8.2,0.9-11.9c0-1.2-0.1-2-0.3-2.7h4.4c0,0.1-0.2,1.5-0.2,2.7
		c0,3.5-0.1,9.9-0.9,12.9c-0.9,3.4-2.8,6.3-5.3,8.6L395,483.9z M408.9,484.4c0.1-0.6,0.2-1.4,0.2-2.2v-17.5c0-1.3-0.2-2.5-0.2-2.6
		h4.5c0,0.1-0.2,1.3-0.2,2.6v15.7c2.4-1.1,5.4-3.4,7.4-6.3l2.3,3.3c-2.5,3.2-6.8,6.5-10.2,8.2c-0.6,0.3-0.9,0.6-1.3,0.9L408.9,484.4
		z"/>
	<path d="M435.8,461.3c-0.2,1.3-0.4,2.8-0.4,4c-0.2,3.2-0.4,9.8-0.4,13.5c0,3,1.8,4,4.1,4c4.9,0,8-2.8,10.2-6.1l2.7,3.3
		c-1.9,2.8-6.1,6.8-12.9,6.8c-4.9,0-8-2.1-8-7.2c0-4,0.3-11.8,0.3-14.3c0-1.4-0.1-2.8-0.4-4L435.8,461.3z"/>
	<path d="M460.5,464.3c2.5-0.2,7.4-0.7,12.8-1.1c3.1-0.2,6.3-0.4,8.4-0.5l0,3.8c-1.6,0-4.1,0-5.7,0.4c-3.6,1-6.3,4.8-6.3,8.3
		c0,4.9,4.6,6.6,9.6,6.9l-1.4,4.1c-6.2-0.4-12.1-3.8-12.1-10.2c0-4.3,2.4-7.7,4.4-9.2c-2.5,0.3-8.8,0.9-12.3,1.7l-0.4-4.1
		C458.8,464.4,459.9,464.4,460.5,464.3z"/>
	<path d="M513,481c-0.8-0.7-1.6-1.4-2.5-2.1c-1.3,3.4-3.6,6-7.5,8l-3.2-2.6c4.5-1.9,6.6-4.8,7.6-7.5c-2.1-1.1-4.4-2-7-2.4
		c-1.1,2.5-2.4,5.5-3.4,7.1c-1.2,1.8-2.6,2.6-4.6,2.6c-2.6,0-4.6-1.8-4.6-4.8c0-4.6,4.2-8.1,10.1-8.4c0.8-1.9,1.7-3.9,2.4-5.3
		c-1.2,0-3.7,0.1-5.1,0.2c-0.6,0-1.7,0.1-2.4,0.3l-0.1-3.8c0.8,0.1,1.8,0.1,2.5,0.1c1.7,0,4.9-0.1,6.2-0.2c0.7-0.1,1.5-0.2,2-0.5
		l2.4,1.9c-0.4,0.5-0.8,0.8-1,1.3c-0.8,1.3-1.9,3.8-2.9,6.4c2.3,0.4,4.5,1.1,6.4,1.9c0-0.4,0.1-0.7,0.1-1c0.1-1.1,0.1-2.3,0-3.2
		l3.9,0.5c-0.1,2-0.3,3.8-0.6,5.5c1.2,0.7,2.3,1.4,3.2,2L513,481z M496.3,474.5c-3.3,0.5-5.1,2.5-5.1,4.4c0,0.8,0.5,1.4,1.1,1.4
		c0.6,0,1-0.3,1.6-1C494.6,478.2,495.5,476.4,496.3,474.5z"/>
	<path d="M535.1,467.9c-1.8,0.4-3.8,0.7-5.8,1c-0.3,1.3-0.6,2.6-0.9,3.8c-1.1,4.2-3.1,10.3-4.7,13.7l-4.2-1.4c1.8-3,4-9.2,5.1-13.4
		c0.2-0.8,0.4-1.6,0.6-2.5c-0.7,0-1.4,0.1-2,0.1c-1.4,0-2.5-0.1-3.6-0.1l-0.1-3.7c1.5,0.2,2.5,0.2,3.8,0.2c0.9,0,1.7,0,2.6-0.1
		c0.1-0.7,0.2-1.2,0.3-1.7c0.1-1.1,0.2-2.3,0.1-3l4.5,0.4c-0.2,0.8-0.5,2.1-0.6,2.8l-0.2,1.1c1.7-0.3,3.4-0.6,5-1V467.9z
		 M534.5,477.6c-0.2,0.8-0.4,1.8-0.4,2.5c0,1.3,0.8,2.2,3.9,2.2c2,0,4-0.2,6.2-0.6l-0.1,3.8c-1.7,0.2-3.7,0.4-6.1,0.4
		c-5,0-7.6-1.7-7.6-4.7c0-1.3,0.3-2.8,0.5-4L534.5,477.6z M532.8,470.1c1.6-0.1,3.8-0.3,5.7-0.3c1.7,0,3.5,0.1,5.2,0.3l-0.1,3.6
		c-1.5-0.2-3.3-0.4-5.1-0.4c-2.1,0-3.9,0.1-5.7,0.3V470.1z"/>
	<path d="M571.4,485.2c-1.7-1.7-3.9-3.5-6.6-4.7c0,0.4,0,0.7,0,1c0,2.6-1.4,5.1-6.3,5.1c-4.2,0-7.7-1.4-7.7-5.4
		c0-3.1,2.6-5.5,8.1-5.5c0.6,0,1.2,0,1.8,0.1c-0.1-2.3-0.2-4.9-0.2-6.4c0-1.8,0-3.6-0.1-4.8c0-1.5-0.1-2.7-0.3-3.5h4.5
		c-0.1,0.9-0.2,2.3-0.3,3.5c0,0.7,0,1.4,0,2.2c2.3-0.1,5.8-0.2,8.3-0.5l0.1,3.5c-2.5,0.2-6,0.4-8.4,0.4c0.1,1.8,0.2,4.1,0.3,6.3
		c3.8,1.1,7,3.2,9,5.1L571.4,485.2z M560.9,479.2c-0.8-0.1-1.6-0.2-2.5-0.2c-2.3,0-3.7,0.8-3.7,2c0,1.5,1.5,2,3.6,2
		c1.9,0,2.6-0.9,2.6-2.8C560.9,480,560.9,479.6,560.9,479.2z"/>
</g>
<g>
	<path d="M1058.5,208v338h-838V208H1058.5 M1064.5,202h-850v350h850V202L1064.5,202z"/>
</g>
</svg>
